<?xml version="1.0" encoding="utf-8"?><!DOCTYPE svg PUBLIC "-//W3C//DTD SVG 1.1//EN" "http://www.w3.org/Graphics/SVG/1.1/DTD/svg11.dtd"><svg width="286" height="240" viewBox="0 0 286 240" xmlns="http://www.w3.org/2000/svg" xmlns:xlink="http://www.w3.org/1999/xlink"><svg id="clear-view-escapes" data-name="Layer 1" width="142.4" height="59.53" viewBox="0 0 142.4 59.53" x="143" xmlns="http://www.w3.org/2000/svg"><defs><style>.acls-1{fill:#fff}</style></defs><title>clear-view-escapes</title><path class="acls-1" d="M19.5 27.52v4.75H5.93v5.51h12.45v4.39H5.93v6.3h13.85v4.75H.28v-25.7H19.5zM27.36 48.59a3 3 0 0 0 .88 1 3.78 3.78 0 0 0 1.24.56 5.84 5.84 0 0 0 1.46.18 5.46 5.46 0 0 0 1.13-.13 3.86 3.86 0 0 0 1.08-.4 2.47 2.47 0 0 0 .85-.75 1.89 1.89 0 0 0 .32-1.13 1.91 1.91 0 0 0-1.53-1.73 30.59 30.59 0 0 0-4.3-1.19q-1.12-.25-2.18-.59a7.38 7.38 0 0 1-1.89-.9 4.35 4.35 0 0 1-1.33-1.4 4 4 0 0 1-.5-2.07 5.6 5.6 0 0 1 .7-3 5.16 5.16 0 0 1 1.85-1.82 8.13 8.13 0 0 1 2.59-.94 15.92 15.92 0 0 1 3-.27 14.79 14.79 0 0 1 2.93.29 7.77 7.77 0 0 1 2.54 1 5.83 5.83 0 0 1 1.8 1.88 6.11 6.11 0 0 1 .89 2.82H34a2.24 2.24 0 0 0-1.12-2 5.1 5.1 0 0 0-2.37-.52 8.77 8.77 0 0 0-.94.05 3.15 3.15 0 0 0-.92.23 1.91 1.91 0 0 0-.7.52 1.38 1.38 0 0 0-.29.92 1.4 1.4 0 0 0 .5 1.12 3.88 3.88 0 0 0 1.31.7 16.38 16.38 0 0 0 1.85.49l2.18.49a21.57 21.57 0 0 1 2.18.61 7.2 7.2 0 0 1 1.89 1 4.63 4.63 0 0 1 1.33 1.48 4.34 4.34 0 0 1 .5 2.18 5.65 5.65 0 0 1-2.66 5.07A7.9 7.9 0 0 1 34 53.37a15.9 15.9 0 0 1-3.11.31 15.36 15.36 0 0 1-3.17-.32A8.35 8.35 0 0 1 25 52.27a6.17 6.17 0 0 1-2-2 6.25 6.25 0 0 1-.85-3.11H27a2.8 2.8 0 0 0 .36 1.43zM51.27 38a3.59 3.59 0 0 0-2.05.56A4.45 4.45 0 0 0 47.87 40a6.23 6.23 0 0 0-.74 1.94 10.54 10.54 0 0 0-.21 2.06 10.11 10.11 0 0 0 .21 2 6.32 6.32 0 0 0 .7 1.89 4 4 0 0 0 1.31 1.39 3.61 3.61 0 0 0 2 .54 3.75 3.75 0 0 0 2.83-1 4.86 4.86 0 0 0 1.24-2.75h4.93a8.43 8.43 0 0 1-2.88 5.65 9.29 9.29 0 0 1-6.08 1.94 10.16 10.16 0 0 1-3.83-.7 8.49 8.49 0 0 1-3-2 8.92 8.92 0 0 1-1.91-3 10.42 10.42 0 0 1-.68-3.83 12.4 12.4 0 0 1 .63-4 9 9 0 0 1 1.9-3.13 8.49 8.49 0 0 1 3-2.1 10.15 10.15 0 0 1 4-.76 11.63 11.63 0 0 1 3.19.43 8.49 8.49 0 0 1 2.73 1.31 6.79 6.79 0 0 1 2.83 5.31h-5A3.43 3.43 0 0 0 51.27 38zM62.82 40.33a5.93 5.93 0 0 1 .9-3 6.13 6.13 0 0 1 2-1.91 8.83 8.83 0 0 1 2.75-1 15.71 15.71 0 0 1 3.08-.31 20.85 20.85 0 0 1 2.84.2 8.72 8.72 0 0 1 2.63.77A5.18 5.18 0 0 1 79 36.67a4.47 4.47 0 0 1 .76 2.72v9.68a19.49 19.49 0 0 0 .14 2.41 4.34 4.34 0 0 0 .5 1.73h-5.19a6.77 6.77 0 0 1-.21-.88 7.44 7.44 0 0 1-.13-.92A6.64 6.64 0 0 1 72 53.17a11.55 11.55 0 0 1-3.38.5 9.1 9.1 0 0 1-2.48-.32 5.68 5.68 0 0 1-2-1 4.69 4.69 0 0 1-1.35-1.73 5.84 5.84 0 0 1-.49-2.48 5.42 5.42 0 0 1 .56-2.61 4.66 4.66 0 0 1 1.44-1.64 6.44 6.44 0 0 1 2-.92 21.75 21.75 0 0 1 2.29-.49q1.15-.18 2.27-.29a13.74 13.74 0 0 0 2-.32 3.43 3.43 0 0 0 1.37-.63 1.38 1.38 0 0 0 .4-1.24 2.72 2.72 0 0 0-.27-1.31 2 2 0 0 0-.72-.69 2.86 2.86 0 0 0-1-.36 8.61 8.61 0 0 0-1.28-.09 3.88 3.88 0 0 0-2.37.65 2.89 2.89 0 0 0-1 2.16h-5.17zm11.8 3.78a2.28 2.28 0 0 1-.81.45 8.28 8.28 0 0 1-1 .27c-.41.07-.81.17-1.2.17s-.82.11-1.22.18a9.24 9.24 0 0 0-1.13.29 3.34 3.34 0 0 0-1 .49 2.3 2.3 0 0 0-.67.77 2.49 2.49 0 0 0-.25 1.19 2.4 2.4 0 0 0 .25 1.15 1.93 1.93 0 0 0 .68.74 2.9 2.9 0 0 0 1 .38 6.48 6.48 0 0 0 1.19.11 4.51 4.51 0 0 0 2.34-.5 3.36 3.36 0 0 0 1.22-1.21 3.87 3.87 0 0 0 .49-1.42 10.06 10.06 0 0 0 .12-1.17v-1.89zM88.56 34.6V37h.07A5.62 5.62 0 0 1 91 34.78a7.29 7.29 0 0 1 3.17-.68 8.07 8.07 0 0 1 3.78.83 7.82 7.82 0 0 1 2.63 2.2 9.31 9.31 0 0 1 1.55 3.19 14.19 14.19 0 0 1 .5 3.8 12.82 12.82 0 0 1-.5 3.6 9.18 9.18 0 0 1-1.53 3.06 7.58 7.58 0 0 1-2.6 2.11 7.69 7.69 0 0 1-3.58.79 7.23 7.23 0 0 1-3.18-.7 6 6 0 0 1-2.39-2.07h-.04v8.82H83.7V34.6h4.86zm6.64 14.76A4.09 4.09 0 0 0 96.56 48a5.43 5.43 0 0 0 .74-1.89 11.19 11.19 0 0 0 .22-2.2 10.32 10.32 0 0 0-.23-2.2 5.86 5.86 0 0 0-.77-1.92 4.33 4.33 0 0 0-1.39-1.37 3.87 3.87 0 0 0-2.08-.42 3.94 3.94 0 0 0-2.11.52 4.22 4.22 0 0 0-1.37 1.35 5.6 5.6 0 0 0-.74 1.91 11.3 11.3 0 0 0-.2 2.22 10.31 10.31 0 0 0 .23 2.2 5.69 5.69 0 0 0 .76 1.8 4.36 4.36 0 0 0 5.58 1.36zM111.15 48.75a5.24 5.24 0 0 0 6 .34 3.21 3.21 0 0 0 1.37-1.64H123a8.54 8.54 0 0 1-3.31 4.79 9.75 9.75 0 0 1-5.4 1.44 10.6 10.6 0 0 1-4-.7 8.22 8.22 0 0 1-3-2 9 9 0 0 1-1.89-3.09 11.34 11.34 0 0 1-.67-4 10.84 10.84 0 0 1 .68-3.89 9 9 0 0 1 4.95-5.18 9.63 9.63 0 0 1 3.87-.76 8.84 8.84 0 0 1 4.14.92 8.26 8.26 0 0 1 2.9 2.46A10.14 10.14 0 0 1 123 41a13.14 13.14 0 0 1 .36 4.14H109.9a5.16 5.16 0 0 0 1.25 3.61zm5.78-9.75a3.59 3.59 0 0 0-2.79-1 4.45 4.45 0 0 0-2 .41 3.89 3.89 0 0 0-1.3 1 3.77 3.77 0 0 0-.68 1.3 5.83 5.83 0 0 0-.23 1.22h8.31a5.91 5.91 0 0 0-1.31-2.93zM130.64 48.59a3 3 0 0 0 .88 1 3.78 3.78 0 0 0 1.24.56 5.83 5.83 0 0 0 1.46.18 5.46 5.46 0 0 0 1.13-.13 3.86 3.86 0 0 0 1.08-.4 2.47 2.47 0 0 0 .81-.72 1.89 1.89 0 0 0 .32-1.13 1.91 1.91 0 0 0-1.56-1.76 30.55 30.55 0 0 0-4.22-1.19q-1.11-.25-2.18-.59a7.39 7.39 0 0 1-1.89-.9 4.36 4.36 0 0 1-1.33-1.4 4 4 0 0 1-.5-2.07 5.6 5.6 0 0 1 .7-3 5.18 5.18 0 0 1 1.85-1.82 8.13 8.13 0 0 1 2.59-.94 15.91 15.91 0 0 1 3-.27 14.79 14.79 0 0 1 2.93.29 7.77 7.77 0 0 1 2.54 1 5.84 5.84 0 0 1 1.85 1.82 6.11 6.11 0 0 1 .88 2.86h-4.86a2.24 2.24 0 0 0-1.12-2 5.1 5.1 0 0 0-2.37-.52 8.77 8.77 0 0 0-.94.05 3.15 3.15 0 0 0-.92.23 1.9 1.9 0 0 0-.7.52 1.38 1.38 0 0 0-.29.92 1.4 1.4 0 0 0 .5 1.12 3.87 3.87 0 0 0 1.31.7 16.33 16.33 0 0 0 1.85.49l2.1.51a21.57 21.57 0 0 1 2.18.61 7.18 7.18 0 0 1 1.89 1 4.63 4.63 0 0 1 1.33 1.48 4.33 4.33 0 0 1 .5 2.18 5.65 5.65 0 0 1-2.68 5.04 7.89 7.89 0 0 1-2.72 1.06 15.9 15.9 0 0 1-3.11.31 15.35 15.35 0 0 1-3.17-.32 8.35 8.35 0 0 1-2.75-1.08 6.18 6.18 0 0 1-2-2 6.25 6.25 0 0 1-.85-3.11h4.86a2.8 2.8 0 0 0 .38 1.42zM23.64 6.29a6.36 6.36 0 0 0-.55-1.43 4 4 0 0 0-.9-1.12A4 4 0 0 0 20.9 3a5.11 5.11 0 0 0-1.71-.26 5 5 0 0 0-2.46.58A4.84 4.84 0 0 0 15 4.85a6.93 6.93 0 0 0-1 2.19 10.16 10.16 0 0 0 0 5 6.92 6.92 0 0 0 1 2.19 4.83 4.83 0 0 0 1.69 1.54 5 5 0 0 0 2.46.57A4.44 4.44 0 0 0 21 16a4.12 4.12 0 0 0 1.38-1 4.71 4.71 0 0 0 .9-1.49 7.13 7.13 0 0 0 .43-1.83h3.05a8.48 8.48 0 0 1-.69 2.93 7.17 7.17 0 0 1-1.59 2.29 7 7 0 0 1-2.35 1.49 8.14 8.14 0 0 1-3 .53 8.43 8.43 0 0 1-3.59-.74 7.88 7.88 0 0 1-2.69-2 9 9 0 0 1-1.69-3 11 11 0 0 1-.59-3.63 11 11 0 0 1 .59-3.6 9 9 0 0 1 1.69-3 8 8 0 0 1 2.69-2 8.29 8.29 0 0 1 3.65-.76A9.46 9.46 0 0 1 22 .6a7.31 7.31 0 0 1 2.34 1.2A6.23 6.23 0 0 1 26 3.72a6.66 6.66 0 0 1 .78 2.58h-3.14zM29.31.62h2.85v17.85h-2.85V.62zM37.49 12.74a5 5 0 0 0 .21 1.45 3.57 3.57 0 0 0 .64 1.23 3.06 3.06 0 0 0 1.08.84 3.54 3.54 0 0 0 1.55.31A3.42 3.42 0 0 0 43 16a3.17 3.17 0 0 0 1.14-1.61h2.7a5.36 5.36 0 0 1-2.1 3.26 5.71 5.71 0 0 1-1.74.85 7 7 0 0 1-2 .29 6.85 6.85 0 0 1-2.7-.5 5.58 5.58 0 0 1-2-1.4 5.93 5.93 0 0 1-1.3-2.12 8.74 8.74 0 0 1-.36-2.77 7.79 7.79 0 0 1 .44-2.61 6.68 6.68 0 0 1 1.25-2.18 5.86 5.86 0 0 1 4.56-2 5.8 5.8 0 0 1 2.74.64 6 6 0 0 1 2 1.69 6.84 6.84 0 0 1 1.17 2.39 7.42 7.42 0 0 1 .2 2.81h-9.5zm6.65-1.88a4.61 4.61 0 0 0-.29-1.3 3.47 3.47 0 0 0-.65-1.09 3.23 3.23 0 0 0-1-.75 3 3 0 0 0-1.31-.29 3.42 3.42 0 0 0-1.36.26 3.11 3.11 0 0 0-1.05.73 3.59 3.59 0 0 0-.7 1.09 3.78 3.78 0 0 0-.29 1.35h6.65zM60 15.59a1.51 1.51 0 0 0 .14.75.58.58 0 0 0 .54.23H61a1.85 1.85 0 0 0 .4 0v2l-.4.04-.49.11-.5.08h-.43a2.75 2.75 0 0 1-1.45-.35 1.74 1.74 0 0 1-.75-1.23 5 5 0 0 1-2.09 1.2 8.22 8.22 0 0 1-2.39.38 5.86 5.86 0 0 1-1.68-.24 4.38 4.38 0 0 1-1.41-.7 3.35 3.35 0 0 1-1-1.18 3.62 3.62 0 0 1-.35-1.68 3.84 3.84 0 0 1 .44-2 3.24 3.24 0 0 1 1.15-1.18 5.21 5.21 0 0 1 1.6-.61q.89-.19 1.79-.29a14.67 14.67 0 0 1 1.48-.21 6.86 6.86 0 0 0 1.24-.21 1.9 1.9 0 0 0 .84-.37 1.27 1.27 0 0 0 .31-.94 1.46 1.46 0 0 0-.26-.9 1.77 1.77 0 0 0-.65-.54 2.82 2.82 0 0 0-.86-.25 6.94 6.94 0 0 0-.9-.06 3.58 3.58 0 0 0-2 .5 2 2 0 0 0-.87 1.55h-2.83a4.29 4.29 0 0 1 .6-2.08 4.14 4.14 0 0 1 1.34-1.33 5.48 5.48 0 0 1 1.84-.7 10.94 10.94 0 0 1 2.1-.2 8.85 8.85 0 0 1 1.88.2 5.34 5.34 0 0 1 1.65.62 3.61 3.61 0 0 1 1.19 1.16A3.19 3.19 0 0 1 60 8.94v6.65zM57.14 12a3.45 3.45 0 0 1-1.6.51q-1 .09-1.9.26a6.12 6.12 0 0 0-.87.21 2.63 2.63 0 0 0-.75.38 1.65 1.65 0 0 0-.51.63 2.14 2.14 0 0 0-.19.94 1.19 1.19 0 0 0 .27.8 2 2 0 0 0 .66.51 3.08 3.08 0 0 0 .85.26 5.3 5.3 0 0 0 .84.07 4.6 4.6 0 0 0 1-.12A3.4 3.4 0 0 0 56 16a2.73 2.73 0 0 0 .81-.76 1.93 1.93 0 0 0 .33-1.14V12zM63.06 5.54h2.68V8h.05a2.88 2.88 0 0 1 .49-1 4.73 4.73 0 0 1 .88-.91 4.4 4.4 0 0 1 1.14-.66 3.41 3.41 0 0 1 1.28-.25 6.21 6.21 0 0 1 .69 0h.39V8L70 7.93a5.06 5.06 0 0 0-.61 0 3.28 3.28 0 0 0-1.36.29 3.13 3.13 0 0 0-1.09.78 4.16 4.16 0 0 0-.75 1.39 6 6 0 0 0-.27 1.9v6.15h-2.86V5.54zM77.19.62h3.25l4.48 14.13H85L89.54.62h3.17l-6.1 17.85h-3.47zM94.42.62h2.85v2.7h-2.85V.62zm0 4.93h2.85v12.92h-2.85V5.54zM102.59 12.74a5 5 0 0 0 .21 1.45 3.57 3.57 0 0 0 .64 1.23 3.06 3.06 0 0 0 1.08.84 3.54 3.54 0 0 0 1.55.31 3.42 3.42 0 0 0 2-.54 3.18 3.18 0 0 0 1.14-1.61h2.7a5.36 5.36 0 0 1-2.1 3.26 5.71 5.71 0 0 1-1.74.85 7 7 0 0 1-2 .29 6.85 6.85 0 0 1-2.7-.5 5.58 5.58 0 0 1-2-1.4 5.93 5.93 0 0 1-1.22-2.15 8.73 8.73 0 0 1-.41-2.77 7.77 7.77 0 0 1 .44-2.61 6.69 6.69 0 0 1 1.25-2.18 5.86 5.86 0 0 1 4.56-2 5.79 5.79 0 0 1 2.74.64 6 6 0 0 1 2 1.69 6.85 6.85 0 0 1 1.16 2.41 7.42 7.42 0 0 1 .19 2.81h-9.5zm6.65-1.88a4.6 4.6 0 0 0-.29-1.3 3.48 3.48 0 0 0-.65-1.09 3.22 3.22 0 0 0-1-.75 3 3 0 0 0-1.3-.28 3.43 3.43 0 0 0-1.36.26 3.12 3.12 0 0 0-1 .73 3.6 3.6 0 0 0-.7 1.09 3.8 3.8 0 0 0-.29 1.35h6.65zM113.1 5.54h3l2.53 9.65 2.42-9.65H124l2.33 9.65L129 5.54h2.9l-4 12.93h-2.93l-2.4-9.6-2.37 9.6h-3z" transform="translate(-.28 -.19)"/></svg><svg id="comment" data-name="Layer 1" width="64" height="64" viewBox="0 0 64 64" x="64" y="112" xmlns="http://www.w3.org/2000/svg"><defs><style>.bcls-1{fill:#2f5572}</style></defs><title>comment</title><path class="bcls-1" d="M.72.08A.67.67 0 0 0 0 .8v46.48a.72.72 0 0 0 .72.72H48l16 16V.72a.67.67 0 0 0-.72-.72H.8z"/></svg><svg id="facebook" data-name="Layer 1" width="21.23" height="42.01" viewBox="0 0 21.23 42.01" x="258.78" y="59.53" xmlns="http://www.w3.org/2000/svg"><defs><style>.ccls-1{fill:#fff}</style></defs><title>facebook</title><path class="ccls-1" d="M21.23.31V7H17.4a3.55 3.55 0 0 0-2.85.91 4.26 4.26 0 0 0-.74 2.72v4.77H21l-1 7.47h-6.19V42H6.27V22.85H0v-7.47h6.27V9.85q0-4.69 2.55-7.28A9 9 0 0 1 15.63 0a39.57 39.57 0 0 1 5.6.31z"/></svg><svg id="fire" data-name="Layer 1" width="56" height="64" viewBox="0 0 56 64" x="128" y="112" xmlns="http://www.w3.org/2000/svg"><defs><style>.dcls-1{fill:#d4953d}</style></defs><title>Untitled-2</title><path class="dcls-1" d="M16 0C24 16 0 24 0 40s16 24 16 24C8.16 48.16 32 40 32 24S16 0 16 0zm24 24c8 16-16 24-16 40h24c3.2 0 8-4 8-16 0-16-16-24-16-24z"/></svg><svg id="globe" data-name="Layer 1" width="64" height="64" viewBox="0 0 64 64" y="112" xmlns="http://www.w3.org/2000/svg"><defs><style>.ecls-1{fill:#d4953f}</style></defs><title>globe</title><path class="ecls-1" d="M32 0a32 32 0 1 0 32 32A32 32 0 0 0 32 0zm0 8a23.75 23.75 0 0 1 7.52 1.52c-1.68 1.6-3.6 3-3.28 4.48s5.52 1 5.52 4c0 2.16-3.36 2.8-1 5.28 2.8 2.8-5.12 7.84-5.28 11.52-.24 6.64 6.72 7.76 12.24 7.76 3.36 0 4.24 1.6 4 3.52a24.07 24.07 0 0 1-19.76 10 22.94 22.94 0 0 1-8.48-1.76c1.76-3.52-2.24-10.48-6-12.72-1.84-1.84-5.76-1.12-8-2a23.49 23.49 0 0 1-1.52-6.72 1.42 1.42 0 0 1 1.28-.72c1.52 0 3.6 3 4.72 2.72 1.4-.32-5.96-10.48-2.52-12.48 1.6-1 4.8 3.12 3.76-1.28-1-4.08 2.88-2.24 5.28-3.28 2.08-.88 3.6-3.28 1-4.72a8.55 8.55 0 0 1-1.76-1.52A23.75 23.75 0 0 1 32 8.08V8zm18.48 8.72A26.46 26.46 0 0 1 54 22.48v.24a11.78 11.78 0 0 1-1.76 1.76C50 26.72 49.68 22.8 48.72 22c-1-1-4.8.16-5.28-1-.56-1.48 4-3.4 7.04-4.28z"/></svg><svg id="instagram" data-name="Layer 1" width="42.01" height="42.01" viewBox="0 0 42.01 42.01" x="124" y="176" xmlns="http://www.w3.org/2000/svg"><defs><style>.fcls-1{fill:#fff}</style></defs><title>instagram</title><path class="fcls-1" d="M37.25 35.49V17.77h-3.69a11.77 11.77 0 0 1 .57 3.58 12.12 12.12 0 0 1-1.75 6.36 12.76 12.76 0 0 1-4.76 4.59 13.13 13.13 0 0 1-6.56 1.7 12.78 12.78 0 0 1-9.19-3.71 12 12 0 0 1-3.83-9 11.77 11.77 0 0 1 .49-3.56H4.68v17.76a1.63 1.63 0 0 0 1.6 1.67h29.3a1.63 1.63 0 0 0 1.17-.47 1.59 1.59 0 0 0 .5-1.2zm-7.77-14.57A7.75 7.75 0 0 0 27 15.14a8.28 8.28 0 0 0-6-2.4 8.25 8.25 0 0 0-5.91 2.39 7.75 7.75 0 0 0-2.47 5.78 7.75 7.75 0 0 0 2.47 5.79A8.25 8.25 0 0 0 21 29.1a8.28 8.28 0 0 0 6-2.4 7.75 7.75 0 0 0 2.48-5.78zm7.76-9.84V6.56a1.84 1.84 0 0 0-.54-1.31 1.8 1.8 0 0 0-1.31-.56h-4.78a1.8 1.8 0 0 0-1.31.56 1.84 1.84 0 0 0-.54 1.31v4.52A1.87 1.87 0 0 0 30.6 13h4.8a1.87 1.87 0 0 0 1.85-1.89zM42 5.39v31.23A5.41 5.41 0 0 1 36.62 42H5.39a5.19 5.19 0 0 1-3.8-1.59A5.19 5.19 0 0 1 0 36.62V5.39a5.19 5.19 0 0 1 1.59-3.8A5.19 5.19 0 0 1 5.39 0h31.23a5.19 5.19 0 0 1 3.8 1.59A5.19 5.19 0 0 1 42 5.39z"/></svg><svg viewBox="0 0 143 112" fill-rule="evenodd" clip-rule="evenodd" stroke-linejoin="round" stroke-miterlimit="1.414" width="143" height="112" id="logo" xmlns="http://www.w3.org/2000/svg"><g transform="matrix(.30007 0 0 .30007 -151.92 -53.844)"><text font-family="'Lato-Black','Lato',sans-serif" font-weight="900" font-size="36" fill="#493329" transform="translate(651.55 552.343)">VW SHOW</text><g transform="matrix(.304 0 0 .304 520.953 396.916)"><path d="M137.611-98.905h1231.697l-212.334-303.9-23.325 23.716-131.55-185.404-241.408 308.421-237.142-295.483-89.825 148.75-36.854-25.867L137.61-98.905z" fill="#e2dcbc" fill-rule="nonzero"/><path d="M150.923-105.37h1205.98l-200.775-287.35-17.867 18.166c-1.341 1.362-3.237 2.046-5.129 1.912a6.468 6.468 0 0 1-4.758-2.704l-126.53-178.33-236.058 301.593a6.49 6.49 0 0 1-5.054 2.479h-.042a6.46 6.46 0 0 1-5.042-2.42L524.302-540.289l-85.041 140.83a6.496 6.496 0 0 1-4.204 2.983 6.454 6.454 0 0 1-5.05-1.038l-31.838-22.35L150.923-105.37zm1218.388 12.933h-1231.7a6.466 6.466 0 0 1-5.084-10.463l259.259-329.77a6.471 6.471 0 0 1 8.8-1.297l31.183 21.888L518.015-554.9a6.486 6.486 0 0 1 5.108-3.113 6.51 6.51 0 0 1 5.471 2.409l232.034 289.12 236.375-301.995a6.514 6.514 0 0 1 5.246-2.48 6.484 6.484 0 0 1 5.125 2.725l127.079 179.1 17.908-18.204c1.35-1.375 3.234-2.05 5.15-1.912a6.462 6.462 0 0 1 4.763 2.742l212.337 303.9a6.467 6.467 0 1 1-5.3 10.17" fill="#493329" fill-rule="nonzero"/><path d="M760.688-256.077l30.183-140.259-55.362-80.5-11.471-232.096 99.73 144.442 36.778-25.871 83.3 100.292-183.158 233.992z" fill="#e2dcbc" fill-rule="nonzero"/><path d="M741.879-478.986L796.199-400a6.474 6.474 0 0 1 .997 5.021l-24.271 112.775 162.617-207.746-76.159-91.687-31.896 22.433a6.406 6.406 0 0 1-4.858 1.08 6.465 6.465 0 0 1-4.183-2.693l-86.83-125.754 10.263 207.584zm18.804 229.375c-.92 0-1.858-.196-2.741-.608a6.472 6.472 0 0 1-3.58-7.217l29.596-137.534-53.779-78.2a6.47 6.47 0 0 1-1.13-3.345l-11.47-232.097a6.47 6.47 0 0 1 4.383-6.445 6.48 6.48 0 0 1 7.4 2.45l96.021 139.07 31.442-22.112c2.758-1.95 6.537-1.437 8.7 1.158l83.3 100.288a6.47 6.47 0 0 1 .117 8.117L765.783-252.09a6.48 6.48 0 0 1-5.1 2.479" fill="#493329" fill-rule="nonzero"/><path d="M790.87-396.335l-30.183 140.258L579.21-482.223l144.83-226.708 11.466 232.096 55.363 80.5z" fill="#d6cfa5" fill-rule="nonzero"/><path d="M587.16-482.653l170.063 211.929 26.737-124.242-53.783-78.204a6.508 6.508 0 0 1-1.13-3.346l-10.47-211.854L587.16-482.653zm173.53 233.046a6.478 6.478 0 0 1-5.047-2.421l-181.479-226.15a6.473 6.473 0 0 1-.404-7.53l144.83-226.704c1.512-2.37 4.39-3.479 7.108-2.77a6.472 6.472 0 0 1 4.8 5.933l11.383 230.262 54.317 78.988a6.467 6.467 0 0 1 .996 5.025L767.01-254.716a6.474 6.474 0 0 1-6.32 5.109" fill="#493329" fill-rule="nonzero"/><path d="M1002.1-564.491l-20.975 159.533 43.25 89.142-30.18 81.921-48.462 134.992H715.791l44.9-157.167L1002.1-564.49z" fill="#d6cfa5" fill-rule="nonzero"/><path d="M724.362-105.37h216.817l46.929-130.709 29.25-79.392-42.054-86.662a6.51 6.51 0 0 1-.592-3.667L992.6-541.862 766.562-253.083l-42.2 147.713zm221.367 12.933H715.79a6.47 6.47 0 0 1-6.22-8.242l44.9-157.17a6.56 6.56 0 0 1 1.124-2.21l241.409-308.42a6.477 6.477 0 0 1 7.596-1.975 6.467 6.467 0 0 1 3.912 6.804l-20.72 157.613 42.404 87.4a6.467 6.467 0 0 1 .25 5.058l-30.184 81.92-48.441 134.943a6.476 6.476 0 0 1-6.092 4.279" fill="#493329" fill-rule="nonzero"/><path d="M565.888-407.849l-272.93 308.93H137.614L396.87-428.675l36.863 25.87 87.829-145.474 4.483-.13 39.842 140.559z" fill="#d6cfa5" fill-rule="nonzero"/><path d="M150.923-105.383h139.12l268.66-304.1-36.226-127.8-83.204 137.824a6.463 6.463 0 0 1-9.254 1.946l-31.85-22.35-247.246 314.48zM292.961-92.45H137.61a6.466 6.466 0 0 1-5.084-10.463L391.786-432.67a6.471 6.471 0 0 1 8.8-1.296l31.196 21.892 84.245-139.55a6.464 6.464 0 0 1 5.355-3.117l4.483-.13c2.896-.224 5.596 1.855 6.404 4.7l39.842 140.56c.6 2.116.079 4.395-1.375 6.045L297.806-94.633a6.466 6.466 0 0 1-4.845 2.183" fill="#493329" fill-rule="nonzero"/><path d="M523.547-551.556l2.5 3.146-4.483.129 1.983-3.275z" fill="#fff" fill-rule="nonzero"/><path d="M521.563-541.813a6.47 6.47 0 0 1-5.533-9.817l1.983-3.274a6.48 6.48 0 0 1 5.125-3.109 6.49 6.49 0 0 1 5.475 2.438l2.5 3.146a6.452 6.452 0 0 1 .796 6.75 6.452 6.452 0 0 1-5.68 3.737l-4.487.125c-.058.004-.12.004-.179.004" fill="#493329" fill-rule="nonzero"/><path d="M1040.59-80.436c-3.092-26.77-31.446-170.309-31.446-170.309s-135.362-16.17-255.683-16.17c-120.317 0-255.68 16.17-255.68 16.17s-28.354 143.538-31.446 170.309C454.881 18.73 532.02 22.906 609.306 70.472c84.071 51.738 112.709 137.971 112.709 137.971h62.896s28.637-86.233 112.708-137.97c77.288-47.567 154.425-51.742 142.971-150.91" fill="#e5e5e5" fill-rule="nonzero"/><path d="M897.628 70.473c-84.08 51.741-112.708 137.975-112.708 137.975h-31.475v-475.363c120.341 0 255.683 16.17 255.683 16.17s28.37 143.534 31.475 170.31c11.425 99.166-65.708 103.35-142.975 150.908" fill="#c6c6c6" fill-rule="nonzero"/><path d="M726.543 201.978h53.833c7.167-18.687 38.688-90.754 113.85-137.012 18.788-11.567 37.125-20.388 54.859-28.925 54.142-26.054 93.262-44.88 85.075-115.734-2.713-23.512-25.57-140.337-30.454-165.166-24.834-2.8-144.142-15.588-250.246-15.588-106.125 0-225.417 12.788-250.246 15.588-4.884 24.829-27.742 141.654-30.459 165.166-8.183 70.855 30.938 89.68 85.08 115.734 17.733 8.537 36.07 17.358 54.858 28.925 75.162 46.258 106.687 118.325 113.85 137.012m58.367 12.934h-62.896a6.47 6.47 0 0 1-6.138-4.425c-.279-.838-29.004-84.684-109.962-134.509-18.217-11.212-36.25-19.887-53.688-28.279-54.496-26.23-101.558-48.88-92.32-128.88 3.087-26.716 30.37-164.95 31.528-170.816a6.474 6.474 0 0 1 5.58-5.17c1.358-.163 137.12-16.213 256.446-16.213 119.325 0 255.092 16.05 256.446 16.212a6.47 6.47 0 0 1 5.579 5.171c1.158 5.867 28.442 144.1 31.53 170.821 9.237 79.996-37.826 102.646-92.322 128.875-17.437 8.392-35.467 17.067-53.687 28.28-81.125 49.933-109.68 133.666-109.959 134.504a6.465 6.465 0 0 1-6.137 4.429" fill="#493329" fill-rule="nonzero"/><path d="M526.055-223.796s88.816-12.218 212.092-12.217L732.02-80.435l-231.231 3.231 25.266-146.592z" fill="#54524e" fill-rule="nonzero"/><path d="M531.617-217.99L508.484-83.777 725.8-86.815l5.617-142.72c-102.3.374-180.362 9.15-199.8 11.545m-30.83 147.254a6.48 6.48 0 0 1-4.92-2.262 6.483 6.483 0 0 1-1.454-5.304l25.27-146.596a6.46 6.46 0 0 1 5.488-5.308c.896-.121 90.675-12.275 212.975-12.275 1.763 0 3.442.712 4.663 1.983a6.454 6.454 0 0 1 1.8 4.737l-6.125 155.58a6.465 6.465 0 0 1-6.371 6.212l-231.234 3.233h-.091z" fill="#493329" fill-rule="nonzero"/><path d="M1065.09-80.437h-24.5c11.454 99.167-65.688 103.342-142.975 150.909-84.067 51.737-112.709 137.97-112.709 137.97H722.015s-28.642-86.233-112.709-137.97C532.02 22.905 454.877 18.73 466.336-80.437H441.83S392.827 47.834 420.394 215.99c0 0 68.908 39.883 333.067 39.883 264.158 0 333.067-39.883 333.067-39.883 27.566-168.155-21.438-296.426-21.438-296.426" fill="#3788e2" fill-rule="nonzero"/><path d="M1086.52 215.99s-68.9 39.884-333.075 39.884v-47.43h31.475s28.629-86.233 112.708-137.97c77.263-47.559 154.4-51.742 142.971-150.909h24.492s48.979 128.271 21.429 296.425" fill="#2174bf" fill-rule="nonzero"/><path d="M426.245 211.66c14.833 6.708 95.996 37.746 327.213 37.746 231.13 0 312.32-31.013 327.217-37.75 23.183-146.35-12.342-262.563-20.163-285.625h-12.808c5.65 74.183-40.188 96.246-93.013 121.666-17.433 8.392-35.466 17.071-53.687 28.284-80.955 49.82-109.68 133.667-109.959 134.508a6.48 6.48 0 0 1-6.137 4.425h-62.896a6.48 6.48 0 0 1-6.138-4.425c-.279-.841-29.004-84.687-109.958-134.508-18.22-11.213-36.25-19.892-53.688-28.284-52.825-25.42-98.666-47.483-93.012-121.666h-12.808c-7.813 23.083-43.317 139.446-20.163 285.629m327.213 50.68c-262.867 0-333.43-39.088-336.305-40.75a6.489 6.489 0 0 1-3.146-4.555c-27.525-167.933 21.288-298.48 21.78-299.78a6.473 6.473 0 0 1 6.046-4.158h24.5a6.467 6.467 0 0 1 6.425 7.209C464.57-8.84 503.69 9.985 557.837 36.043c17.733 8.534 36.07 17.359 54.858 28.921 75.163 46.258 106.684 118.325 113.85 137.013h53.834c7.162-18.688 38.687-90.755 113.846-137.013 18.787-11.562 37.125-20.387 54.858-28.92 54.142-26.06 93.262-44.884 85.08-115.738a6.475 6.475 0 0 1 1.595-5.046 6.469 6.469 0 0 1 4.83-2.163h24.5a6.463 6.463 0 0 1 6.04 4.159c.497 1.3 49.31 131.846 21.784 299.779a6.471 6.471 0 0 1-3.141 4.554c-2.88 1.663-73.438 40.75-336.313 40.75" fill="#493329" fill-rule="nonzero"/><path d="M570.215 130.835c0 26.196-21.233 47.43-47.43 47.43-26.19 0-47.428-21.234-47.428-47.43 0-26.192 21.237-47.43 47.429-47.43 26.196 0 47.429 21.238 47.429 47.43" fill="#fff" fill-rule="nonzero"/><path d="M522.785 89.874c-22.588 0-40.963 18.375-40.963 40.962 0 22.584 18.375 40.959 40.963 40.959s40.963-18.375 40.963-40.959c0-22.587-18.375-40.962-40.963-40.962m0 94.858c-29.717 0-53.896-24.179-53.896-53.896 0-29.72 24.18-53.895 53.896-53.895 29.717 0 53.896 24.175 53.896 53.895 0 29.717-24.18 53.896-53.896 53.896" fill="#493329" fill-rule="nonzero"/><path d="M483.521 45.68c0 10.121-8.204 18.325-18.325 18.325-10.12 0-18.325-8.204-18.325-18.325 0-10.12 8.204-18.325 18.325-18.325 10.12 0 18.325 8.204 18.325 18.325" fill="#fff" fill-rule="nonzero"/><path d="M465.197 33.823c-6.538 0-11.858 5.317-11.858 11.858 0 6.538 5.32 11.855 11.858 11.855s11.858-5.317 11.858-11.855c0-6.541-5.32-11.858-11.858-11.858m0 36.65c-13.67 0-24.792-11.125-24.792-24.792 0-13.67 11.121-24.791 24.792-24.791 13.67 0 24.792 11.12 24.792 24.791 0 13.667-11.121 24.792-24.792 24.792" fill="#493329" fill-rule="nonzero"/><path d="M320.858-78.64l94.805 12.933 4.309-66.112-90.488 4.312-8.626 48.866z" fill="#3788e2" fill-rule="nonzero"/><path d="M328.395-84.14l81.267 11.088 3.387-51.958-78.096 3.72-6.558 37.15zm87.267 24.9c-.292 0-.584-.016-.875-.058L319.982-72.23a6.46 6.46 0 0 1-4.35-2.6 6.445 6.445 0 0 1-1.141-4.933l8.62-48.863a6.468 6.468 0 0 1 6.063-5.337l90.492-4.313c1.83-.054 3.63.613 4.92 1.93a6.477 6.477 0 0 1 1.842 4.953l-4.312 66.109a6.454 6.454 0 0 1-2.363 4.587 6.461 6.461 0 0 1-4.091 1.459" fill="#493329" fill-rule="nonzero"/><path d="M441.83-80.437l-24.752-6.974-1.416 21.709 16.262 17.78 9.907-32.515z" fill="#fff" fill-rule="nonzero"/><path d="M422.295-68.036l6.746 7.38 4.679-15.346-10.708-3.017-.717 10.983zm9.63 26.58a6.464 6.464 0 0 1-4.776-2.105L410.887-61.34a6.466 6.466 0 0 1-1.68-4.787l1.417-21.709a6.484 6.484 0 0 1 2.721-4.858 6.49 6.49 0 0 1 5.487-.946l24.75 6.98a6.459 6.459 0 0 1 4.434 8.108l-9.904 32.512a6.47 6.47 0 0 1-6.188 4.584M496.317 244.016a6.435 6.435 0 0 1-4.517-1.841 6.464 6.464 0 0 1-.112-9.142c.891-.913 22.15-22.342 52.408-23.504 12.625-.492 39.896 1.47 74.438 3.95 42.387 3.037 95.142 6.825 134.925 6.825a6.467 6.467 0 0 1 0 12.933c-40.246 0-93.259-3.804-135.854-6.858-32.784-2.354-61.092-4.388-73.013-3.925-25.158.966-43.467 19.429-43.646 19.612a6.452 6.452 0 0 1-4.629 1.95" fill="#493329" fill-rule="nonzero"/><path d="M1026.8-278.413s-128.633-22.275-273.346-22.275-273.346 22.275-273.346 22.275L441.825-80.438h24.504c0-26.946 31.446-170.308 31.446-170.308s135.358-16.167 255.679-16.167c120.32 0 255.68 16.167 255.68 16.167s31.45 143.362 31.45 170.308h24.5L1026.8-278.413z" fill="#e5e5e5" fill-rule="nonzero"/><path d="M1046.7-86.903h10.546l-35.942-185.858c-23.737-3.825-140.196-21.463-267.85-21.463-127.654 0-244.109 17.638-267.85 21.463L449.662-86.903h10.546c3.37-37.867 30.042-159.717 31.25-165.23a6.466 6.466 0 0 1 5.55-5.033c1.358-.162 137.12-16.216 256.446-16.216 119.325 0 255.092 16.054 256.446 16.216a6.466 6.466 0 0 1 5.554 5.034c1.208 5.512 27.875 127.362 31.246 165.229m18.383 12.933h-24.5a6.466 6.466 0 0 1-6.47-6.466c0-23.305-25-139.909-30.313-164.413-24.625-2.775-144.104-15.6-250.346-15.6-106.258 0-225.725 12.825-250.342 15.6-5.312 24.504-30.317 141.108-30.317 164.413a6.465 6.465 0 0 1-6.466 6.466h-24.504a6.472 6.472 0 0 1-4.988-2.35 6.462 6.462 0 0 1-1.362-5.341l38.287-197.98a6.47 6.47 0 0 1 5.246-5.145c1.292-.221 130.842-22.371 274.446-22.371 143.608 0 273.158 22.15 274.45 22.37a6.47 6.47 0 0 1 5.246 5.146l38.283 197.98a6.462 6.462 0 0 1-1.362 5.341 6.472 6.472 0 0 1-4.988 2.35" fill="#493329" fill-rule="nonzero"/><path d="M1103.76 239.705c-2.296-18.325-17.23-23.713-17.23-23.713s-68.908 39.88-333.066 39.88c-264.159 0-333.067-39.88-333.067-39.88s-14.93 5.388-17.23 23.713c-2.295 18.325 4.597 31.258 17.23 39.883 12.633 8.621 172.275 40.959 333.067 40.959s320.433-32.338 333.067-40.959c12.633-8.625 19.525-21.558 17.229-39.883" fill="#e5e5e5" fill-rule="nonzero"/><path d="M1086.52 279.587c-12.633 8.625-172.25 40.963-333.075 40.963v-64.675c264.175 0 333.075-39.884 333.075-39.884s14.917 5.388 17.246 23.713c2.287 18.325-4.613 31.258-17.246 39.883" fill="#c6c6c6" fill-rule="nonzero"/><path d="M420.356 223.222c-3.375 2.05-9.5 7.104-10.775 17.287-1.854 14.796 2.875 25.83 14.458 33.738 11.863 7.7 168.355 39.833 329.421 39.833 161.067 0 317.559-32.133 329.43-39.841 11.575-7.9 16.304-18.934 14.45-33.73-1.275-10.166-7.38-15.22-10.783-17.287-16.342 7.708-97.455 39.117-333.097 39.117-235.675 0-316.775-31.417-333.104-39.117M753.46 327.014c-160.925 0-321.812-31.913-336.717-42.084-15.525-10.6-22.441-26.516-19.995-46.029 2.758-22.004 20.687-28.72 21.45-28.996a6.45 6.45 0 0 1 5.433.488c.663.375 71.842 39.012 329.83 39.012 257.987 0 329.166-38.637 329.854-39.029a6.559 6.559 0 0 1 5.408-.47c.763.274 18.692 6.99 21.45 28.995 2.446 19.513-4.47 35.43-20 46.03-14.9 10.17-175.787 42.083-336.713 42.083" fill="#493329" fill-rule="nonzero"/><path d="M980.865-223.796s-88.816-12.218-212.092-12.217L774.9-80.435l231.231 3.231-25.266-146.592z" fill="#54524e" fill-rule="nonzero"/><path d="M781.12-86.817l217.317 3.042-23.134-134.217c-19.437-2.391-97.5-11.17-199.804-11.541l5.621 142.716zm225.013 16.084h-.092l-231.234-3.234a6.47 6.47 0 0 1-6.37-6.212l-6.13-155.584a6.474 6.474 0 0 1 6.467-6.72c122.3 0 212.08 12.154 212.971 12.279a6.46 6.46 0 0 1 5.492 5.308L1012.504-78.3a6.455 6.455 0 0 1-1.455 5.3 6.47 6.47 0 0 1-4.916 2.267" fill="#493329" fill-rule="nonzero"/><path d="M936.705 130.835c0 26.196 21.233 47.43 47.43 47.43 26.19 0 47.428-21.234 47.428-47.43 0-26.192-21.237-47.43-47.429-47.43-26.196 0-47.429 21.238-47.429 47.43" fill="#fff" fill-rule="nonzero"/><path d="M984.135 89.874c-22.588 0-40.963 18.375-40.963 40.962 0 22.584 18.375 40.959 40.963 40.959s40.963-18.375 40.963-40.959c0-22.587-18.375-40.962-40.963-40.962m0 94.858c-29.717 0-53.896-24.179-53.896-53.896 0-29.72 24.18-53.895 53.896-53.895 29.717 0 53.896 24.175 53.896 53.895 0 29.717-24.18 53.896-53.896 53.896" fill="#493329" fill-rule="nonzero"/><path d="M1023.4 45.68c0 10.121 8.204 18.325 18.325 18.325 10.12 0 18.325-8.204 18.325-18.325 0-10.12-8.204-18.325-18.325-18.325-10.12 0-18.325 8.204-18.325 18.325" fill="#fff" fill-rule="nonzero"/><path d="M1041.72 33.823c-6.538 0-11.858 5.317-11.858 11.858 0 6.538 5.32 11.855 11.858 11.855s11.858-5.317 11.858-11.855c0-6.541-5.32-11.858-11.858-11.858m0 36.65c-13.67 0-24.792-11.125-24.792-24.792 0-13.67 11.121-24.791 24.792-24.791 13.67 0 24.792 11.12 24.792 24.791 0 13.667-11.121 24.792-24.792 24.792" fill="#493329" fill-rule="nonzero"/><path d="M1186.062-78.641l-94.806 12.933-4.309-66.111 90.489 4.312 8.626 48.866z" fill="#2174bf" fill-rule="nonzero"/><path d="M1093.87-125.011l3.388 51.962 81.266-11.092-6.558-37.15-78.096-3.72zm-2.613 65.775a6.47 6.47 0 0 1-6.454-6.046l-4.312-66.113a6.477 6.477 0 0 1 1.841-4.954c1.292-1.312 3.109-1.983 4.921-1.93l90.492 4.313a6.468 6.468 0 0 1 6.063 5.338l8.62 48.862a6.455 6.455 0 0 1-1.141 4.938 6.47 6.47 0 0 1-4.35 2.596l-94.805 12.937a6.858 6.858 0 0 1-.875.059" fill="#493329" fill-rule="nonzero"/><path d="M1065.093-80.437l24.753-6.974 1.416 21.709L1075-47.922l-9.907-32.515z" fill="#fff" fill-rule="nonzero"/><path d="M1073.2-76.002l4.675 15.346 6.75-7.38-.717-10.987-10.708 3.021zm1.796 34.546c-.475 0-.954-.054-1.43-.158a6.472 6.472 0 0 1-4.758-4.425l-9.908-32.513a6.474 6.474 0 0 1 4.433-8.108l24.755-6.98a6.467 6.467 0 0 1 8.204 5.804l1.416 21.71a6.449 6.449 0 0 1-1.679 4.787l-16.262 17.779a6.455 6.455 0 0 1-4.771 2.104" fill="#493329" fill-rule="nonzero"/><path d="M965.809-325.122c-30.183-16.167-137.97-25.871-212.35-25.871-74.375 0-182.167 9.704-212.35 25.87-30.18 16.167-49.48 44.855-49.48 44.855h.013c34.567-5.342 142.708-20.421 261.817-20.421 119.108 0 227.254 15.08 261.817 20.42h.016s-19.3-28.687-49.483-44.853" fill="#c6c6c6" fill-rule="nonzero"/><path d="M753.459-344.525c-76.83 0-181.68 10.308-209.296 25.104-16.05 8.596-28.996 21.092-37.233 30.358 44.212-6.262 141.662-18.095 246.529-18.095 104.867 0 202.321 11.833 246.534 18.095-8.242-9.266-21.188-21.762-37.238-30.358-27.617-14.796-132.467-25.104-209.296-25.104m261.834 70.725h-.017c-.33 0-.663-.025-.988-.075-30.891-4.775-140.991-20.35-260.829-20.35s-229.938 15.575-260.83 20.35c-2.687.408-5.42-.95-6.7-3.354a6.465 6.465 0 0 1 .334-6.65c.825-1.225 20.554-30.209 51.792-46.946 33.92-18.17 148.587-26.633 215.404-26.633 66.817 0 181.483 8.462 215.404 26.633 31.238 16.737 50.971 45.72 51.796 46.946a6.468 6.468 0 1 1-5.367 10.08M1010.6 244.016c-1.675 0-3.35-.65-4.617-1.938-.183-.187-18.666-18.666-43.658-19.625-11.9-.462-40.225 1.571-73.013 3.925-42.595 3.055-95.608 6.859-135.854 6.859a6.467 6.467 0 0 1 0-12.934c39.783 0 92.538-3.787 134.925-6.825 34.542-2.479 61.83-4.433 74.438-3.95 30.258 1.163 51.517 22.592 52.408 23.505a6.464 6.464 0 0 1-.112 9.141 6.435 6.435 0 0 1-4.517 1.842" fill="#493329" fill-rule="nonzero"/><path d="M813.823 27.356c0 33.337-27.025 60.362-60.363 60.362-33.337 0-60.362-27.025-60.362-60.362 0-33.338 27.025-60.363 60.362-60.363 33.338 0 60.363 27.025 60.363 60.363" fill="#fff" fill-rule="nonzero"/><path d="M753.459-26.54c-29.717 0-53.896 24.179-53.896 53.896 0 29.716 24.18 53.895 53.896 53.895 29.717 0 53.896-24.179 53.896-53.895 0-29.717-24.18-53.896-53.896-53.896m0 120.725c-36.85 0-66.83-29.98-66.83-66.83 0-36.85 29.98-66.829 66.83-66.829 36.85 0 66.83 29.98 66.83 66.83 0 36.85-29.98 66.829-66.83 66.829" fill="#493329" fill-rule="nonzero"/><path d="M753.465 28.076a6.474 6.474 0 0 1-5.667-3.338l-26.766-48.354a6.47 6.47 0 0 1 2.529-8.792 6.459 6.459 0 0 1 8.791 2.525l26.767 48.355a6.473 6.473 0 0 1-2.529 8.791 6.43 6.43 0 0 1-3.125.813" fill="#493329" fill-rule="nonzero"/><path d="M737.061 76.94a6.468 6.468 0 0 1-5.746-3.496L694.382 2.048a6.47 6.47 0 0 1 2.77-8.716 6.47 6.47 0 0 1 8.717 2.77l31.054 60.03 10.738-21.759a6.47 6.47 0 0 1 11.6 5.725l-16.4 33.234a6.468 6.468 0 0 1-5.737 3.608h-.063z" fill="#493329" fill-rule="nonzero"/><path d="M753.455 28.076a6.43 6.43 0 0 1-3.125-.813 6.473 6.473 0 0 1-2.53-8.791l26.768-48.355a6.457 6.457 0 0 1 8.791-2.525 6.47 6.47 0 0 1 2.53 8.792l-26.767 48.354a6.474 6.474 0 0 1-5.667 3.338" fill="#493329" fill-rule="nonzero"/><path d="M769.859 76.94h-.063a6.468 6.468 0 0 1-5.737-3.608l-16.4-33.234a6.464 6.464 0 0 1 2.937-8.662 6.468 6.468 0 0 1 8.663 2.937l10.738 21.759 31.054-60.03a6.47 6.47 0 0 1 8.716-2.77 6.47 6.47 0 0 1 2.771 8.716l-36.933 71.396a6.468 6.468 0 0 1-5.746 3.496" fill="#493329" fill-rule="nonzero"/><path d="M935.699 308.705c.525 65.1 4.183 73.683 15.558 78.133 12.396 4.85 50.121 3.775 71.68-.537 21.558-4.313 28.487-29.105 28.487-56.05V289.7c-27.108 5.958-67.787 13.091-115.725 19.004" fill="#54524e" fill-rule="nonzero"/><path d="M942.222 314.407c.713 59.279 4.642 63.77 11.392 66.408 4.396 1.725 14.304 2.75 26.5 2.75 14.512 0 30.433-1.383 41.554-3.604 19.25-3.85 23.287-29.159 23.287-49.713v-32.55c-28.904 6.021-65.566 11.992-102.733 16.709m37.896 82.096h-.004c-10 0-23.534-.634-31.213-3.642-16.025-6.267-19.15-19.63-19.67-84.104a6.466 6.466 0 0 1 5.674-6.471c42.184-5.2 84.146-12.092 115.13-18.904a6.493 6.493 0 0 1 5.441 1.275 6.481 6.481 0 0 1 2.417 5.041v40.55c0 35.892-11.963 58.05-33.688 62.392-11.895 2.383-28.791 3.863-44.087 3.863" fill="#493329" fill-rule="nonzero"/><path d="M455.496 289.7v40.55c0 26.95 6.93 51.741 28.488 56.05 21.558 4.312 59.283 5.391 71.679.541 11.375-4.454 15.033-13.033 15.558-78.138-47.937-5.908-88.617-13.045-115.725-19.004" fill="#54524e" fill-rule="nonzero"/><path d="M461.963 297.697v32.554c0 20.55 4.042 45.859 23.283 49.709 11.125 2.225 27.046 3.608 41.555 3.608h.004c12.196 0 22.104-1.03 26.5-2.75 6.75-2.642 10.679-7.133 11.391-66.413-37.166-4.716-73.829-10.683-102.733-16.708m64.842 98.804h-.004c-15.3-.004-32.192-1.479-44.088-3.858-21.72-4.346-33.683-26.504-33.683-62.392v-40.55a6.465 6.465 0 0 1 7.854-6.316c30.979 6.808 72.942 13.7 115.13 18.904 3.257.4 5.7 3.183 5.674 6.47-.52 64.471-3.646 77.834-19.67 84.105-7.684 3.004-21.213 3.637-31.213 3.637" fill="#493329" fill-rule="nonzero"/><path d="M841.849 173.952H665.07l-.892 80.242 89.283 1.679 89.28-1.68-.892-80.24z" fill="#54524e" fill-rule="nonzero"/><path d="M670.718 247.848l82.742 1.554 82.741-1.554-.75-67.43H671.464l-.746 67.43zm82.742 14.492h-.125l-89.28-1.68a6.471 6.471 0 0 1-6.345-6.537l.891-80.242a6.469 6.469 0 0 1 6.467-6.396h176.78c3.541 0 6.428 2.85 6.466 6.396l.896 80.242a6.471 6.471 0 0 1-6.346 6.537l-89.283 1.68h-.121" fill="#493329" fill-rule="nonzero"/></g><g transform="translate(-44.21 -97.29)"><text font-family="'Lato-Black','Lato',sans-serif" font-weight="900" font-size="48" fill="#493329" transform="translate(549.44 566.53)">Que</text><text font-family="'Lato-Black','Lato',sans-serif" font-weight="900" font-size="48" fill="#493329" transform="translate(640.352 566.53)">x</text></g><g transform="translate(328.879 -96.714)"><text font-family="'Lato-Black','Lato',sans-serif" font-weight="900" font-size="48" fill="#493329" transform="translate(549.44 566.53)">P</text><text font-family="'Lato-Black','Lato',sans-serif" font-weight="900" font-size="48" fill="#493329" transform="translate(578.864 566.53)">ark</text></g></g></svg><svg id="mail" data-name="Layer 1" width="64" height="48" viewBox="0 0 64 48" x="143" y="59.53" xmlns="http://www.w3.org/2000/svg"><defs><style>.hcls-1{fill:#2f5572}</style></defs><title>mail</title><path class="hcls-1" d="M0 0v8l32 16L64 8V0H0zm0 16v32h64V16L32 32z"/></svg><svg id="rain" data-name="Layer 1" width="64" height="64" viewBox="0 0 64 64" x="184" y="112" xmlns="http://www.w3.org/2000/svg"><defs><style>.icls-1{fill:#d4953f}</style></defs><title>rain</title><path class="icls-1" d="M36 0a20.42 20.42 0 0 0-20 16A16 16 0 0 0 0 32a15.4 15.4 0 0 0 4.27 10.72A11.88 11.88 0 0 1 12 40a10.51 10.51 0 0 1 4.47 1A12 12 0 0 1 28 32a12.06 12.06 0 0 1 11.51 9A11.84 11.84 0 0 1 44 40a11.94 11.94 0 0 1 11 7.52A12.07 12.07 0 0 0 64 36c0-5.2-3.36-10.32-8-12v-4A20 20 0 0 0 36 0zm-9.27 40A4 4 0 0 0 24 44v16a4 4 0 1 0 8 0V44a4 4 0 0 0-4.71-4h-.56zm-16 8A4 4 0 0 0 8 52v8a4 4 0 1 0 8 0v-8a4 4 0 0 0-4.71-4h-.54zm32 0A4 4 0 0 0 40 52v8a4 4 0 1 0 8 0v-8a4 4 0 0 0-4.71-4h-.58z" transform="translate(-.04)"/></svg><svg id="star" data-name="Layer 1" width="64" height="64" viewBox="0 0 64 64" y="176" xmlns="http://www.w3.org/2000/svg"><defs><style>.jcls-1{fill:#d4953f}</style></defs><title>star</title><path class="jcls-1" d="M32 0l-8 24H0l20 16-8 24 20-16 20 16-8-24 20-16H40z"/></svg><svg id="twitter" data-name="Layer 1" width="51.78" height="42.06" viewBox="0 0 51.78 42.06" x="207" y="59.53" xmlns="http://www.w3.org/2000/svg"><defs><style>.kcls-1{fill:#fff}</style></defs><title>twitter</title><path class="kcls-1" d="M51.78 5a22.23 22.23 0 0 1-5.32 5.52v1.38a30.15 30.15 0 0 1-1.25 8.53 30.81 30.81 0 0 1-3.76 8.13 32.1 32.1 0 0 1-6.06 6.92 27 27 0 0 1-8.48 4.8 31 31 0 0 1-10.62 1.8A29.47 29.47 0 0 1 0 37.29a22.71 22.71 0 0 0 2.56.13 20.78 20.78 0 0 0 13.17-4.53 10.63 10.63 0 0 1-9.92-7.36 13.45 13.45 0 0 0 2 .16 11 11 0 0 0 2.79-.36 10.44 10.44 0 0 1-6.09-3.67 10.25 10.25 0 0 1-2.41-6.75v-.13a10.52 10.52 0 0 0 4.8 1.34 10.6 10.6 0 0 1-3.45-3.78 10.34 10.34 0 0 1-1.28-5.07 10.4 10.4 0 0 1 1.45-5.33 30.08 30.08 0 0 0 9.71 7.83A29.57 29.57 0 0 0 25.53 13a11.79 11.79 0 0 1-.26-2.43 10.23 10.23 0 0 1 3-7.48 10.64 10.64 0 0 1 15 0l.21.22A20.81 20.81 0 0 0 50.33.8a10.3 10.3 0 0 1-4.67 5.85A21.14 21.14 0 0 0 51.78 5z"/></svg><svg id="wifi" data-name="Layer 1" width="60" height="64" viewBox="0 0 60 64" x="64" y="176" xmlns="http://www.w3.org/2000/svg"><defs><style>.lcls-1{fill:#d4953e}</style></defs><title>wifi</title><path class="lcls-1" d="M29.88 0A55.39 55.39 0 0 0 0 8.72l4.22 6.48a47.32 47.32 0 0 1 25.66-7.28 47.31 47.31 0 0 1 25.9 7.28L60 8.72A55.53 55.53 0 0 0 29.88 0zm0 24a31.08 31.08 0 0 0-17 5l4.22 6.72A23.09 23.09 0 0 1 29.8 32a24.17 24.17 0 0 1 13 3.76L47 29a32.37 32.37 0 0 0-17.2-5h.07zm0 24a8 8 0 1 0 8 8 8 8 0 0 0-8-8z"/></svg><svg id="youtube" data-name="Layer 1" width="34.75" height="42" viewBox="0 0 34.75 42" x="248" y="112" xmlns="http://www.w3.org/2000/svg"><defs><style>.mcls-1{fill:#fff}</style></defs><title>youtube</title><path class="mcls-1" d="M22.13 29.15v5q0 1.57-.91 1.57a1.5 1.5 0 0 1-1.06-.52v-7.11a1.5 1.5 0 0 1 1.06-.54q.91 0 .91 1.6zm7.92 0v1.08h-2.1v-1.06q0-1.59 1.06-1.59t1 1.59zM7.42 24h2.5v-2.14h-7.3v2.2h2.46V37.4h2.34V24zm6.75 13.4h2.09V25.82h-2.09v8.86a1.86 1.86 0 0 1-1.31 1 .48.48 0 0 1-.49-.47 6.52 6.52 0 0 1 0-.82v-8.57h-2.14V35a5.79 5.79 0 0 0 .19 1.71 1.26 1.26 0 0 0 1.36.87 3.43 3.43 0 0 0 2.39-1.43v1.25zm10.05-3.47v-4.6A8.33 8.33 0 0 0 24 27a1.63 1.63 0 0 0-1.67-1.31A2.82 2.82 0 0 0 20.16 27v-5.1h-2.08v15.5h2.09v-1.13a2.91 2.91 0 0 0 2.18 1.31A1.62 1.62 0 0 0 24 36.27a8.61 8.61 0 0 0 .22-2.35zm7.92-.24v-.3H30a11.6 11.6 0 0 1 0 1.43.9.9 0 0 1-.94.85q-1.08 0-1.08-1.61V32h4.19v-2.41a4.65 4.65 0 0 0-.66-2.72 3.2 3.2 0 0 0-5 0 4.52 4.52 0 0 0-.66 2.72v4.05a4.4 4.4 0 0 0 .66 2.72 3 3 0 0 0 2.49 1.2 2.9 2.9 0 0 0 3-2.51 10.31 10.31 0 0 0 .09-1.36zM17.89 12.3V7.38q0-1.61-1-1.61t-1 1.61v4.92q0 1.64 1 1.64t1-1.64zm16.85 17.6a40.6 40.6 0 0 1-.61 8.2 4.45 4.45 0 0 1-1.36 2.32 4.1 4.1 0 0 1-2.39 1.08 125.31 125.31 0 0 1-13 .49 125.31 125.31 0 0 1-13-.49A4.15 4.15 0 0 1 2 40.42 4.28 4.28 0 0 1 .63 38.1 39.76 39.76 0 0 1 0 29.9a40.6 40.6 0 0 1 .61-8.2A4.45 4.45 0 0 1 2 19.37a4.25 4.25 0 0 1 2.41-1.1q4.29-.47 13-.47t13 .47a4.4 4.4 0 0 1 3.75 3.42 39.76 39.76 0 0 1 .58 8.21zM11.35 0h2.39l-2.83 9.35v6.35H8.57V9.35a39.68 39.68 0 0 0-1.43-5Q6.27 2 5.61 0H8.1l1.67 6.16zM20 7.8v4.1a4.59 4.59 0 0 1-.66 2.76 2.88 2.88 0 0 1-2.49 1.19 2.9 2.9 0 0 1-2.46-1.19 4.68 4.68 0 0 1-.66-2.76V7.8a4.59 4.59 0 0 1 .66-2.74 2.9 2.9 0 0 1 2.46-1.19 2.88 2.88 0 0 1 2.49 1.19A4.59 4.59 0 0 1 20 7.8zM27.87 4v11.7h-2.13v-1.27a3.37 3.37 0 0 1-2.41 1.45A1.31 1.31 0 0 1 22 15a6 6 0 0 1-.19-1.76V4h2.13v8.6a6.14 6.14 0 0 0 0 .82.49.49 0 0 0 .47.52 1.87 1.87 0 0 0 1.31-1V4h2.16z"/></svg></svg>