<?xml version="1.0" encoding="UTF-8" standalone="no"?><!DOCTYPE svg PUBLIC "-//W3C//DTD SVG 1.1//EN" "http://www.w3.org/Graphics/SVG/1.1/DTD/svg11.dtd"><svg width="100%" height="100%" viewBox="0 0 246 330" version="1.1" xmlns="http://www.w3.org/2000/svg" xmlns:xlink="http://www.w3.org/1999/xlink" xml:space="preserve" xmlns:serif="http://www.serif.com/" style="fill-rule:evenodd;clip-rule:evenodd;stroke-linejoin:round;stroke-miterlimit:1.41421;"><g><path d="M218.264,257.552l-192.35,0c-4.313,0 -7.842,-3.529 -7.842,-7.842l0,-241.365c0,-4.312 3.529,-7.841 7.842,-7.841l192.35,0c4.313,0 7.842,3.529 7.842,7.841l0,241.365c0,4.313 -3.529,7.842 -7.842,7.842" style="fill:#fff;fill-rule:nonzero;"/><rect x="34.337" y="15.937" width="175.503" height="216.853" style="fill:#73ccda;"/><path d="M130.687,244.898c0,4.748 -3.849,8.598 -8.598,8.598c-4.749,0 -8.598,-3.85 -8.598,-8.598c0,-4.748 3.849,-8.598 8.598,-8.598c4.749,0 8.598,3.85 8.598,8.598" style="fill:#73ccda;fill-rule:nonzero;"/><path d="M128.169,244.898c0,3.358 -2.722,6.08 -6.08,6.08c-3.358,0 -6.079,-2.722 -6.079,-6.08c0,-3.357 2.721,-6.08 6.079,-6.08c3.358,0 6.08,2.723 6.08,6.08" style="fill:#fff;fill-rule:nonzero;"/><g><path d="M178.382,73.777c0.516,5.61 5.23,10.005 10.975,10.005c5.745,0 10.459,-4.395 10.974,-10.005l-21.949,0Z" style="fill:#987933;fill-rule:nonzero;"/><path d="M156.142,73.777l-22.255,0l-1.357,-55.44l19.33,0l4.282,55.44Z" style="fill:#987933;fill-rule:nonzero;"/><path d="M200.544,73.777l-22.255,0l-7.008,-55.44l19.47,0l9.793,55.44Z" style="fill:#987933;fill-rule:nonzero;"/><path d="M245.391,73.777l-22.592,0l-12.59,-55.44l19.806,0l15.376,55.44Z" style="fill:#987933;fill-rule:nonzero;"/><path d="M133.891,73.777c0.515,5.61 5.229,10.005 10.974,10.005c5.745,0 10.459,-4.395 10.974,-10.005l-21.948,0Z" style="fill:#987933;fill-rule:nonzero;"/><path d="M222.874,73.777c0.515,5.61 5.229,10.005 10.974,10.005c5.745,0 10.459,-4.395 10.975,-10.005l-21.949,0Z" style="fill:#987933;fill-rule:nonzero;"/><path d="M89.797,73.777l22.255,0l1.357,-55.44l-19.33,0l-4.282,55.44Z" style="fill:#987933;fill-rule:nonzero;"/><path d="M45.395,73.777l22.255,0l7.008,-55.44l-19.47,0l-9.793,55.44Z" style="fill:#987933;fill-rule:nonzero;"/><path d="M0.549,73.777l22.591,0l12.59,-55.44l-19.806,0l-15.375,55.44Z" style="fill:#987933;fill-rule:nonzero;"/><path d="M112.049,73.777c-0.516,5.61 -5.23,10.005 -10.975,10.005c-5.745,0 -10.459,-4.395 -10.974,-10.005l21.949,0Z" style="fill:#987933;fill-rule:nonzero;"/><path d="M67.557,73.777c-0.515,5.61 -5.229,10.005 -10.974,10.005c-5.745,0 -10.459,-4.395 -10.975,-10.005l21.949,0Z" style="fill:#987933;fill-rule:nonzero;"/><path d="M23.065,73.777c-0.515,5.61 -5.229,10.005 -10.974,10.005c-5.745,0 -10.459,-4.395 -10.974,-10.005l21.948,0Z" style="fill:#987933;fill-rule:nonzero;"/></g><path d="M233.034,21.207l-220.032,0c-0.528,0 -0.959,-0.432 -0.959,-0.959l0,-3.822c0,-0.528 0.431,-0.96 0.959,-0.96l220.032,0c0.527,0 0.959,0.432 0.959,0.96l0,3.822c0,0.527 -0.432,0.959 -0.959,0.959" style="fill:#987933;fill-rule:nonzero;"/><path d="M134.146,73.777l-22.256,0l1.616,-55.44l19.024,0l1.616,55.44Z" style="fill:#fff;fill-rule:nonzero;"/><path d="M178.289,73.777l-22.146,0l-4.282,-55.44l19.42,0l7.008,55.44Z" style="fill:#fff;fill-rule:nonzero;"/><path d="M222.799,73.777l-22.255,0l-9.793,-55.44l19.459,0l12.589,55.44Z" style="fill:#fff;fill-rule:nonzero;"/><path d="M111.942,73.777c0.516,5.61 5.23,10.005 10.975,10.005c5.744,0 10.458,-4.395 10.974,-10.005l-21.949,0Z" style="fill:#e6e7e8;fill-rule:nonzero;"/><path d="M156.434,73.777c0.515,5.61 5.229,10.005 10.974,10.005c5.745,0 10.459,-4.395 10.974,-10.005l-21.948,0Z" style="fill:#e6e7e8;fill-rule:nonzero;"/><path d="M200.925,73.777c0.516,5.61 5.23,10.005 10.975,10.005c5.745,0 10.459,-4.395 10.974,-10.005l-21.949,0Z" style="fill:#e6e7e8;fill-rule:nonzero;"/><path d="M67.65,73.777l22.147,0l4.282,-55.44l-19.42,0l-7.009,55.44Z" style="fill:#fff;fill-rule:nonzero;"/><path d="M23.14,73.777l22.255,0l9.794,-55.44l-19.459,0l-12.59,55.44Z" style="fill:#fff;fill-rule:nonzero;"/><path d="M89.506,73.777c-0.516,5.61 -5.23,10.005 -10.975,10.005c-5.745,0 -10.459,-4.395 -10.974,-10.005l21.949,0Z" style="fill:#e6e7e8;fill-rule:nonzero;"/><path d="M45.014,73.777c-0.515,5.61 -5.23,10.005 -10.974,10.005c-5.745,0 -10.459,-4.395 -10.975,-10.005l21.949,0Z" style="fill:#e6e7e8;fill-rule:nonzero;"/><g><g opacity="0.600006"><path d="M227.8,317.633c0,6.496 -46.949,11.761 -104.864,11.761c-57.914,0 -104.863,-5.265 -104.863,-11.761c0,-6.495 46.949,-11.761 104.863,-11.761c57.915,0 104.864,5.266 104.864,11.761" style="fill:#6c6e70;fill-rule:nonzero;"/></g></g></g></svg>