<?xml version="1.0" encoding="UTF-8" standalone="no"?>
<!DOCTYPE svg PUBLIC "-//W3C//DTD SVG 1.1//EN" "http://www.w3.org/Graphics/SVG/1.1/DTD/svg11.dtd">
<svg width="100%" height="100%" viewBox="0 0 143 112" version="1.1" xmlns="http://www.w3.org/2000/svg" xmlns:xlink="http://www.w3.org/1999/xlink" xml:space="preserve" xmlns:serif="http://www.serif.com/" style="fill-rule:evenodd;clip-rule:evenodd;stroke-linejoin:round;stroke-miterlimit:1.41421;">
    <g transform="matrix(0.300067,0,0,0.300068,-151.92,-53.8443)">
        <g id="Artboard1">
            <g id="Layer1">
                <g transform="matrix(1,0,0,1,651.55,552.343)">
                    <text x="0px" y="0px" style="font-family:'Lato-Black', 'Lato', sans-serif;font-weight:900;font-size:36px;fill:rgb(73,51,41);">VW SHOW</text>
                </g>
                <g transform="matrix(0.303993,0,0,0.303993,520.953,396.916)">
                    <g transform="matrix(4.16667,0,0,4.16667,137.611,-564.493)">
                        <path d="M0,111.741L295.607,111.741L244.647,38.805L239.049,44.497L207.477,0L149.539,74.021L92.625,3.105L71.067,38.805L62.222,32.597L0,111.741Z" style="fill:rgb(226,220,188);fill-rule:nonzero;"/>
                    </g>
                    <g transform="matrix(4.16667,0,0,4.16667,150.923,-558.071)">
                        <path d="M0,108.648L289.435,108.648L241.249,39.684L236.961,44.044C236.639,44.371 236.184,44.535 235.73,44.503C235.272,44.466 234.854,44.229 234.588,43.854L204.221,1.055L147.567,73.437C147.274,73.809 146.828,74.029 146.354,74.032L146.344,74.032C145.874,74.032 145.429,73.819 145.134,73.451L89.611,4.268L69.201,38.067C68.978,38.434 68.613,38.694 68.192,38.783C67.772,38.872 67.332,38.782 66.98,38.534L59.339,33.17L0,108.648ZM292.413,111.752L-3.195,111.752C-3.789,111.752 -4.331,111.413 -4.591,110.878C-4.851,110.344 -4.782,109.708 -4.415,109.241L57.807,30.096C58.316,29.449 59.245,29.311 59.919,29.785L67.403,35.038L88.102,0.761C88.365,0.327 88.821,0.049 89.328,0.014C89.828,-0.018 90.323,0.196 90.641,0.592L146.329,69.981L203.059,-2.498C203.361,-2.884 203.835,-3.104 204.318,-3.093C204.809,-3.081 205.264,-2.838 205.548,-2.439L236.047,40.545L240.345,36.176C240.669,35.846 241.121,35.684 241.581,35.717C242.041,35.755 242.46,35.997 242.724,36.375L293.685,109.311C294.016,109.786 294.057,110.404 293.789,110.918C293.521,111.431 292.991,111.752 292.413,111.752" style="fill:rgb(73,51,41);fill-rule:nonzero;"/>
                    </g>
                    <g transform="matrix(4.16667,0,0,4.16667,760.688,-708.932)">
                        <path d="M0,108.685L7.244,75.023L-6.043,55.703L-8.796,0L15.139,34.666L23.966,28.457L43.958,52.527L0,108.685Z" style="fill:rgb(226,220,188);fill-rule:nonzero;"/>
                    </g>
                    <g transform="matrix(4.16667,0,0,4.16667,741.879,-486.603)">
                        <path d="M0,1.828L13.037,20.785C13.279,21.136 13.365,21.573 13.276,21.99L7.451,49.056L46.479,-0.803L28.201,-22.808L20.546,-17.424C20.208,-17.184 19.789,-17.091 19.38,-17.165C18.973,-17.238 18.611,-17.47 18.376,-17.811L-2.463,-47.992L0,1.828ZM4.513,56.878C4.292,56.878 4.067,56.831 3.855,56.732C3.2,56.425 2.845,55.707 2.996,55L10.099,21.992L-2.808,3.224C-2.971,2.987 -3.065,2.708 -3.079,2.421L-5.832,-53.282C-5.866,-53.975 -5.437,-54.606 -4.78,-54.829C-4.125,-55.05 -3.398,-54.812 -3.004,-54.241L20.041,-20.864L27.587,-26.171C28.249,-26.639 29.156,-26.516 29.675,-25.893L49.667,-1.824C50.133,-1.262 50.145,-0.451 49.695,0.124L5.737,56.283C5.435,56.668 4.979,56.878 4.513,56.878" style="fill:rgb(73,51,41);fill-rule:nonzero;"/>
                    </g>
                    <g transform="matrix(4.16667,0,0,4.16667,790.87,-568.673)">
                        <path d="M0,41.361L-7.244,75.023L-50.798,20.748L-16.039,-33.662L-13.287,22.041L0,41.361Z" style="fill:rgb(214,207,165);fill-rule:nonzero;"/>
                    </g>
                    <g transform="matrix(4.16667,0,0,4.16667,587.16,-482.845)">
                        <path d="M0,0.046L40.815,50.909L47.232,21.091L34.324,2.322C34.161,2.085 34.068,1.806 34.053,1.519L31.54,-49.326L0,0.046ZM41.647,55.977C41.182,55.977 40.734,55.767 40.436,55.396L-3.119,1.12C-3.535,0.602 -3.574,-0.126 -3.216,-0.687L31.543,-55.096C31.906,-55.665 32.597,-55.931 33.249,-55.761C33.902,-55.587 34.368,-55.011 34.401,-54.337L37.133,0.926L50.169,19.883C50.411,20.235 50.498,20.671 50.408,21.089L43.164,54.751C43.038,55.336 42.586,55.797 42.003,55.935C41.885,55.963 41.765,55.977 41.647,55.977" style="fill:rgb(73,51,41);fill-rule:nonzero;"/>
                    </g>
                    <g transform="matrix(4.16667,0,0,4.16667,1002.1,-98.9031)">
                        <path d="M0,-111.741L-5.034,-73.453L5.346,-52.059L-1.897,-32.398L-13.528,0L-68.714,0L-57.938,-37.72L0,-111.741Z" style="fill:rgb(214,207,165);fill-rule:nonzero;"/>
                    </g>
                    <g transform="matrix(4.16667,0,0,4.16667,724.362,-558.65)">
                        <path d="M0,108.787L52.036,108.787L63.299,77.417L70.319,58.363L60.226,37.564C60.094,37.29 60.045,36.985 60.084,36.684L64.377,4.029L10.128,73.336L0,108.787ZM53.128,111.891L-2.057,111.891C-2.544,111.891 -3.003,111.663 -3.296,111.274C-3.59,110.885 -3.683,110.381 -3.55,109.913L7.226,72.192C7.282,72 7.373,71.819 7.496,71.662L65.434,-2.359C65.864,-2.908 66.613,-3.104 67.257,-2.833C67.903,-2.562 68.287,-1.893 68.196,-1.2L63.223,36.627L73.4,57.603C73.584,57.982 73.606,58.42 73.46,58.817L66.216,78.478L54.59,110.864C54.368,111.48 53.783,111.891 53.128,111.891" style="fill:rgb(73,51,41);fill-rule:nonzero;"/>
                    </g>
                    <g transform="matrix(4.16667,0,0,4.16667,565.888,-239.478)">
                        <path d="M0,-40.409L-65.503,33.734L-102.786,33.734L-40.564,-45.407L-31.717,-39.198L-10.638,-74.112L-9.562,-74.143L0,-40.409Z" style="fill:rgb(214,207,165);fill-rule:nonzero;"/>
                    </g>
                    <g transform="matrix(4.16667,0,0,4.16667,150.923,-542.163)">
                        <path d="M0,104.827L33.389,104.827L97.867,31.843L89.173,1.171L69.204,34.249C68.982,34.616 68.616,34.876 68.196,34.965C67.774,35.054 67.337,34.964 66.983,34.716L59.339,29.352L0,104.827ZM34.089,107.931L-3.195,107.931C-3.789,107.931 -4.331,107.592 -4.591,107.057C-4.851,106.523 -4.782,105.887 -4.415,105.42L57.807,26.278C58.316,25.631 59.245,25.493 59.919,25.967L67.406,31.221L87.625,-2.271C87.898,-2.722 88.382,-3.005 88.91,-3.019L89.986,-3.05C90.681,-3.104 91.329,-2.605 91.523,-1.922L101.085,31.812C101.229,32.32 101.104,32.867 100.755,33.263L35.252,107.407C34.958,107.74 34.534,107.931 34.089,107.931" style="fill:rgb(73,51,41);fill-rule:nonzero;"/>
                    </g>
                    <g transform="matrix(4.16667,0,0,4.16667,523.547,-548.281)">
                        <path d="M0,-0.786L0.6,-0.031L-0.476,0L0,-0.786Z" style="fill:white;fill-rule:nonzero;"/>
                    </g>
                    <g transform="matrix(4.16667,0,0,4.16667,521.563,-558.146)">
                        <path d="M0,3.92C-0.552,3.92 -1.063,3.627 -1.341,3.149C-1.627,2.658 -1.622,2.049 -1.328,1.564L-0.852,0.778C-0.589,0.343 -0.129,0.065 0.378,0.032C0.883,0 1.375,0.219 1.692,0.617L2.292,1.372C2.658,1.832 2.732,2.46 2.483,2.992C2.235,3.526 1.708,3.873 1.12,3.889L0.043,3.919C0.029,3.92 0.014,3.92 0,3.92" style="fill:rgb(73,51,41);fill-rule:nonzero;"/>
                    </g>
                    <g transform="matrix(4.16667,0,0,4.16667,1040.59,21.964)">
                        <path d="M0,-24.576C-0.742,-31.001 -7.547,-65.45 -7.547,-65.45C-7.547,-65.45 -40.034,-69.331 -68.911,-69.331C-97.787,-69.331 -130.274,-65.45 -130.274,-65.45C-130.274,-65.45 -137.079,-31.001 -137.821,-24.576C-140.57,-0.776 -122.057,0.226 -103.508,11.642C-83.331,24.059 -76.458,44.755 -76.458,44.755L-61.363,44.755C-61.363,44.755 -54.49,24.059 -34.313,11.642C-15.764,0.226 2.749,-0.776 0,-24.576" style="fill:rgb(229,229,229);fill-rule:nonzero;"/>
                    </g>
                    <g transform="matrix(4.16667,0,0,4.16667,897.628,-128.94)">
                        <path d="M0,47.859C-20.179,60.277 -27.05,80.973 -27.05,80.973L-34.604,80.973L-34.604,-33.114C-5.722,-33.114 26.76,-29.233 26.76,-29.233C26.76,-29.233 33.569,5.215 34.314,11.641C37.056,35.441 18.544,36.445 0,47.859" style="fill:rgb(198,198,198);fill-rule:nonzero;"/>
                    </g>
                    <g transform="matrix(4.16667,0,0,4.16667,726.543,-260.447)">
                        <path d="M0,110.982L12.92,110.982C14.64,106.497 22.205,89.201 40.244,78.099C44.753,75.323 49.154,73.206 53.41,71.157C66.404,64.904 75.793,60.386 73.828,43.381C73.177,37.738 67.691,9.7 66.519,3.741C60.559,3.069 31.925,0 6.46,0C-19.01,0 -47.64,3.069 -53.599,3.741C-54.771,9.7 -60.257,37.738 -60.909,43.381C-62.873,60.386 -53.484,64.904 -40.49,71.157C-36.234,73.206 -31.833,75.323 -27.324,78.099C-9.285,89.201 -1.719,106.497 0,110.982M14.008,114.086L-1.087,114.086C-1.755,114.086 -2.349,113.658 -2.56,113.024C-2.627,112.823 -9.521,92.7 -28.951,80.742C-33.323,78.051 -37.651,75.969 -41.836,73.955C-54.915,67.66 -66.21,62.224 -63.993,43.024C-63.252,36.612 -56.704,3.436 -56.426,2.028C-56.295,1.368 -55.755,0.867 -55.087,0.787C-54.761,0.748 -22.178,-3.104 6.46,-3.104C35.098,-3.104 67.682,0.748 68.007,0.787C68.675,0.867 69.216,1.368 69.346,2.028C69.624,3.436 76.172,36.612 76.913,43.025C79.13,62.224 67.835,67.66 54.756,73.955C50.571,75.969 46.244,78.051 41.871,80.742C22.401,92.726 15.548,112.822 15.481,113.023C15.27,113.658 14.677,114.086 14.008,114.086" style="fill:rgb(73,51,41);fill-rule:nonzero;"/>
                    </g>
                    <g transform="matrix(-2.38035,3.41981,3.41981,2.38035,727.979,-194.893)">
                        <path d="M21.992,-43.738C21.992,-43.738 7.408,-27.918 -9.494,-3.635L21.992,16.489L54.332,-28.616L21.992,-43.738Z" style="fill:rgb(84,82,78);fill-rule:nonzero;"/>
                    </g>
                    <g transform="matrix(4.16667,0,0,4.16667,531.617,-95.2272)">
                        <path d="M0,-29.463L-5.552,2.748L46.604,2.019L47.952,-32.234C23.4,-32.144 4.665,-30.038 0,-29.463M-7.399,5.878C-7.853,5.878 -8.284,5.68 -8.58,5.335C-8.879,4.983 -9.008,4.517 -8.929,4.062L-2.864,-31.121C-2.75,-31.787 -2.217,-32.303 -1.547,-32.395C-1.332,-32.424 20.215,-35.341 49.567,-35.341C49.99,-35.341 50.393,-35.17 50.686,-34.865C50.979,-34.561 51.135,-34.15 51.118,-33.728L49.648,3.611C49.615,4.436 48.944,5.091 48.119,5.102L-7.377,5.878L-7.399,5.878Z" style="fill:rgb(73,51,41);fill-rule:nonzero;"/>
                    </g>
                    <g transform="matrix(4.16667,0,0,4.16667,1065.09,255.872)">
                        <path d="M0,-80.714L-5.88,-80.714C-3.131,-56.914 -21.645,-55.912 -40.194,-44.496C-60.37,-32.079 -67.244,-11.383 -67.244,-11.383L-74.791,-11.383L-82.338,-11.383C-82.338,-11.383 -89.212,-32.079 -109.388,-44.496C-127.937,-55.912 -146.451,-56.914 -143.701,-80.714L-149.582,-80.714C-149.582,-80.714 -161.343,-49.929 -154.727,-9.572C-154.727,-9.572 -138.189,0 -74.791,0C-11.393,0 5.145,-9.572 5.145,-9.572C11.761,-49.929 0,-80.714 0,-80.714" style="fill:rgb(55,136,226);fill-rule:nonzero;"/>
                    </g>
                    <g transform="matrix(4.16667,0,0,4.16667,1086.52,-40.5514)">
                        <path d="M0,61.57C0,61.57 -16.536,71.142 -79.938,71.142L-79.938,59.759L-72.384,59.759C-72.384,59.759 -65.513,39.063 -45.334,26.646C-26.791,15.232 -8.278,14.228 -11.021,-9.572L-5.143,-9.572C-5.143,-9.572 6.612,21.213 0,61.57" style="fill:rgb(33,116,191);fill-rule:nonzero;"/>
                    </g>
                    <g transform="matrix(4.16667,0,0,4.16667,426.245,-36.2235)">
                        <path d="M0,59.492C3.56,61.102 23.039,68.551 78.531,68.551C134.002,68.551 153.488,61.108 157.063,59.491C162.627,24.367 154.101,-3.524 152.224,-9.059L149.15,-9.059C150.506,8.745 139.505,14.04 126.827,20.141C122.643,22.155 118.315,24.238 113.942,26.929C94.513,38.886 87.619,59.009 87.552,59.211C87.34,59.844 86.747,60.273 86.079,60.273L70.984,60.273C70.316,60.273 69.723,59.844 69.511,59.211C69.444,59.009 62.55,38.886 43.121,26.929C38.748,24.238 34.421,22.155 30.236,20.141C17.558,14.04 6.556,8.745 7.913,-9.059L4.839,-9.059C2.964,-3.519 -5.557,24.408 0,59.492M78.531,71.655C15.443,71.655 -1.492,62.274 -2.182,61.875C-2.584,61.642 -2.861,61.241 -2.937,60.782C-9.543,20.478 2.172,-10.853 2.29,-11.165C2.52,-11.766 3.097,-12.163 3.741,-12.163L9.621,-12.163C10.063,-12.163 10.485,-11.974 10.779,-11.644C11.074,-11.313 11.214,-10.873 11.163,-10.433C9.198,6.572 18.587,11.09 31.582,17.344C35.838,19.392 40.239,21.51 44.748,24.285C62.787,35.387 70.352,52.683 72.072,57.168L84.992,57.168C86.711,52.683 94.277,35.387 112.315,24.285C116.824,21.51 121.225,19.392 125.481,17.344C138.475,11.09 147.864,6.572 145.9,-10.433C145.849,-10.873 145.989,-11.313 146.283,-11.644C146.577,-11.974 146.999,-12.163 147.442,-12.163L153.322,-12.163C153.966,-12.163 154.543,-11.766 154.772,-11.165C154.891,-10.853 166.606,20.478 160,60.782C159.925,61.241 159.648,61.642 159.246,61.875C158.555,62.274 141.621,71.655 78.531,71.655" style="fill:rgb(73,51,41);fill-rule:nonzero;"/>
                    </g>
                    <g transform="matrix(4.16667,0,0,4.16667,570.215,130.835)">
                        <path d="M0,0C0,6.287 -5.096,11.383 -11.383,11.383C-17.669,11.383 -22.766,6.287 -22.766,0C-22.766,-6.286 -17.669,-11.383 -11.383,-11.383C-5.096,-11.383 0,-6.286 0,0" style="fill:white;fill-rule:nonzero;"/>
                    </g>
                    <g transform="matrix(4.16667,0,0,4.16667,522.785,171.799)">
                        <path d="M0,-19.662C-5.421,-19.662 -9.831,-15.252 -9.831,-9.831C-9.831,-4.411 -5.421,-0.001 0,-0.001C5.421,-0.001 9.831,-4.411 9.831,-9.831C9.831,-15.252 5.421,-19.662 0,-19.662M0,3.104C-7.132,3.104 -12.935,-2.699 -12.935,-9.831C-12.935,-16.964 -7.132,-22.766 0,-22.766C7.132,-22.766 12.935,-16.964 12.935,-9.831C12.935,-2.699 7.132,3.104 0,3.104" style="fill:rgb(73,51,41);fill-rule:nonzero;"/>
                    </g>
                    <g transform="matrix(4.16667,0,0,4.16667,483.521,45.6803)">
                        <path d="M0,0C0,2.429 -1.969,4.398 -4.398,4.398C-6.827,4.398 -8.796,2.429 -8.796,0C-8.796,-2.429 -6.827,-4.398 -4.398,-4.398C-1.969,-4.398 0,-2.429 0,0" style="fill:white;fill-rule:nonzero;"/>
                    </g>
                    <g transform="matrix(4.16667,0,0,4.16667,465.197,57.5398)">
                        <path d="M0,-5.692C-1.569,-5.692 -2.846,-4.416 -2.846,-2.846C-2.846,-1.277 -1.569,-0.001 0,-0.001C1.569,-0.001 2.846,-1.277 2.846,-2.846C2.846,-4.416 1.569,-5.692 0,-5.692M0,3.104C-3.281,3.104 -5.95,0.434 -5.95,-2.846C-5.95,-6.127 -3.281,-8.796 0,-8.796C3.281,-8.796 5.95,-6.127 5.95,-2.846C5.95,0.434 3.281,3.104 0,3.104" style="fill:rgb(73,51,41);fill-rule:nonzero;"/>
                    </g>
                    <g transform="matrix(4.12843,0.563206,0.563206,-4.12843,318.592,-85.5228)">
                        <path d="M0.762,-1.563L23.726,-1.563L22.606,14.298L1.228,10.337L0.762,-1.563Z" style="fill:rgb(55,136,226);fill-rule:nonzero;"/>
                    </g>
                    <g transform="matrix(4.16667,0,0,4.16667,328.395,-113.431)">
                        <path d="M0,7.03L19.504,9.691L20.317,-2.779L1.574,-1.886L0,7.03ZM20.944,13.006C20.874,13.006 20.804,13.002 20.734,12.992L-2.019,9.888C-2.437,9.831 -2.814,9.606 -3.063,9.264C-3.312,8.923 -3.411,8.496 -3.337,8.08L-1.268,-3.647C-1.142,-4.362 -0.538,-4.893 0.187,-4.928L21.905,-5.963C22.344,-5.976 22.776,-5.816 23.086,-5.5C23.396,-5.185 23.556,-4.752 23.528,-4.311L22.493,11.555C22.465,11.985 22.26,12.384 21.926,12.656C21.647,12.884 21.3,13.006 20.944,13.006" style="fill:rgb(73,51,41);fill-rule:nonzero;"/>
                    </g>
                    <g transform="matrix(-4.0105,-1.13004,-1.13004,4.0105,412.688,-58.926)">
                        <path d="M-5.332,-6.866L0.84,-6.866L-0.246,-1.759L-5.16,1.29L-5.332,-6.866Z" style="fill:white;fill-rule:nonzero;"/>
                    </g>
                    <g transform="matrix(4.16667,0,0,4.16667,422.295,-67.5856)">
                        <path d="M0,-0.108L1.619,1.663L2.742,-2.02L0.172,-2.744L0,-0.108ZM2.311,6.271C1.88,6.271 1.463,6.092 1.165,5.766L-2.738,1.499C-3.023,1.187 -3.169,0.772 -3.141,0.35L-2.801,-4.86C-2.77,-5.327 -2.53,-5.755 -2.148,-6.026C-1.765,-6.296 -1.281,-6.379 -0.831,-6.253L5.109,-4.578C5.511,-4.465 5.851,-4.195 6.051,-3.828C6.251,-3.462 6.295,-3.031 6.173,-2.632L3.796,5.171C3.633,5.705 3.197,6.11 2.653,6.233C2.539,6.258 2.424,6.271 2.311,6.271" style="fill:rgb(73,51,41);fill-rule:nonzero;"/>
                    </g>
                    <g transform="matrix(4.16667,0,0,4.16667,496.317,209.037)">
                        <path d="M0,8.395C-0.391,8.395 -0.783,8.248 -1.084,7.953C-1.698,7.354 -1.709,6.372 -1.111,5.759C-0.897,5.54 4.205,0.397 11.467,0.118C14.497,0 21.042,0.471 29.332,1.066C39.505,1.795 52.166,2.704 61.714,2.704C62.571,2.704 63.266,3.398 63.266,4.256C63.266,5.113 62.571,5.808 61.714,5.808C52.055,5.808 39.332,4.895 29.109,4.162C21.241,3.597 14.447,3.109 11.586,3.22C5.548,3.452 1.154,7.883 1.111,7.927C0.806,8.239 0.403,8.395 0,8.395" style="fill:rgb(73,51,41);fill-rule:nonzero;"/>
                    </g>
                    <g transform="matrix(4.16667,0,0,4.16667,1026.8,-102.713)">
                        <path d="M0,-42.168C0,-42.168 -30.872,-47.514 -65.603,-47.514C-100.334,-47.514 -131.206,-42.168 -131.206,-42.168L-140.394,5.346L-134.513,5.346C-134.513,-1.121 -126.966,-35.528 -126.966,-35.528C-126.966,-35.528 -94.48,-39.408 -65.603,-39.408C-36.726,-39.408 -4.24,-35.528 -4.24,-35.528C-4.24,-35.528 3.308,-1.121 3.308,5.346L9.188,5.346L0,-42.168Z" style="fill:rgb(229,229,229);fill-rule:nonzero;"/>
                    </g>
                    <g transform="matrix(4.16667,0,0,4.16667,1046.7,-294.224)">
                        <path d="M0,49.757L2.531,49.757L-6.095,5.151C-11.792,4.233 -39.742,0 -70.379,0C-101.016,0 -128.965,4.233 -134.663,5.151L-143.289,49.757L-140.758,49.757C-139.949,40.669 -133.548,11.425 -133.258,10.102C-133.116,9.457 -132.582,8.972 -131.926,8.894C-131.6,8.855 -99.017,5.002 -70.379,5.002C-41.741,5.002 -9.157,8.855 -8.832,8.894C-8.175,8.972 -7.641,9.457 -7.499,10.102C-7.209,11.425 -0.809,40.669 0,49.757M4.412,52.861L-1.468,52.861C-2.326,52.861 -3.021,52.167 -3.021,51.309C-3.021,45.716 -9.021,17.731 -10.296,11.85C-16.206,11.184 -44.881,8.106 -70.379,8.106C-95.881,8.106 -124.553,11.184 -130.461,11.85C-131.736,17.731 -137.737,45.716 -137.737,51.309C-137.737,52.167 -138.432,52.861 -139.289,52.861L-145.17,52.861C-145.633,52.861 -146.072,52.654 -146.367,52.297C-146.662,51.94 -146.782,51.469 -146.694,51.015L-137.505,3.5C-137.383,2.867 -136.882,2.376 -136.246,2.265C-135.936,2.212 -104.844,-3.104 -70.379,-3.104C-35.913,-3.104 -4.821,2.212 -4.511,2.265C-3.875,2.376 -3.374,2.867 -3.252,3.5L5.936,51.015C6.024,51.469 5.904,51.94 5.609,52.297C5.314,52.654 4.875,52.861 4.412,52.861" style="fill:rgb(73,51,41);fill-rule:nonzero;"/>
                    </g>
                    <g transform="matrix(4.16667,0,0,4.16667,1103.76,296.834)">
                        <path d="M0,-13.711C-0.551,-18.109 -4.135,-19.402 -4.135,-19.402C-4.135,-19.402 -20.673,-9.831 -84.071,-9.831C-147.469,-9.831 -164.007,-19.402 -164.007,-19.402C-164.007,-19.402 -167.59,-18.109 -168.142,-13.711C-168.693,-9.313 -167.039,-6.209 -164.007,-4.139C-160.975,-2.07 -122.661,5.691 -84.071,5.691C-45.481,5.691 -7.167,-2.07 -4.135,-4.139C-1.103,-6.209 0.551,-9.313 0,-13.711" style="fill:rgb(229,229,229);fill-rule:nonzero;"/>
                    </g>
                    <g transform="matrix(4.16667,0,0,4.16667,1086.52,256.954)">
                        <path d="M0,5.432C-3.032,7.502 -41.34,15.263 -79.938,15.263L-79.938,-0.259C-16.536,-0.259 0,-9.831 0,-9.831C0,-9.831 3.58,-8.538 4.139,-4.14C4.688,0.258 3.032,3.362 0,5.432" style="fill:rgb(198,198,198);fill-rule:nonzero;"/>
                    </g>
                    <g transform="matrix(4.16667,0,0,4.16667,420.356,313.047)">
                        <path d="M0,-21.558C-0.81,-21.066 -2.28,-19.853 -2.586,-17.409C-3.031,-13.858 -1.896,-11.21 0.884,-9.312C3.731,-7.464 41.289,0.248 79.945,0.248C118.601,0.248 156.159,-7.464 159.008,-9.314C161.786,-11.21 162.921,-13.858 162.476,-17.409C162.17,-19.849 160.705,-21.062 159.888,-21.558C155.966,-19.708 136.499,-12.17 79.945,-12.17C23.383,-12.17 3.919,-19.71 0,-21.558M79.945,3.352C41.323,3.352 2.71,-4.307 -0.867,-6.748C-4.593,-9.292 -6.253,-13.112 -5.666,-17.795C-5.004,-23.076 -0.701,-24.688 -0.518,-24.754C-0.089,-24.91 0.389,-24.867 0.786,-24.637C0.945,-24.547 18.028,-15.274 79.945,-15.274C141.862,-15.274 158.945,-24.547 159.11,-24.641C159.505,-24.863 159.981,-24.907 160.408,-24.754C160.591,-24.688 164.894,-23.076 165.556,-17.795C166.143,-13.112 164.483,-9.292 160.756,-6.748C157.18,-4.307 118.567,3.352 79.945,3.352" style="fill:rgb(73,51,41);fill-rule:nonzero;"/>
                    </g>
                    <g transform="matrix(-2.38035,-3.41981,-3.41981,2.38035,778.941,-194.893)">
                        <path d="M-21.992,-43.738C-21.992,-43.738 -7.408,-27.918 9.494,-3.635L-21.992,16.489L-54.332,-28.616L-21.992,-43.738Z" style="fill:rgb(84,82,78);fill-rule:nonzero;"/>
                    </g>
                    <g transform="matrix(4.16667,0,0,4.16667,781.12,-226.4)">
                        <path d="M0,33.5L52.156,34.23L46.604,2.018C41.939,1.444 23.204,-0.663 -1.349,-0.752L0,33.5ZM54.003,37.36L53.981,37.36L-1.515,36.584C-2.34,36.572 -3.011,35.917 -3.044,35.093L-4.515,-2.247C-4.531,-2.668 -4.375,-3.079 -4.083,-3.383C-3.789,-3.688 -3.386,-3.86 -2.963,-3.86C26.389,-3.86 47.936,-0.943 48.15,-0.913C48.82,-0.821 49.354,-0.306 49.468,0.361L55.532,35.544C55.611,35.999 55.483,36.465 55.183,36.816C54.888,37.161 54.457,37.36 54.003,37.36" style="fill:rgb(73,51,41);fill-rule:nonzero;"/>
                    </g>
                    <g transform="matrix(4.16667,0,0,4.16667,936.705,130.835)">
                        <path d="M0,0C0,6.287 5.096,11.383 11.383,11.383C17.669,11.383 22.766,6.287 22.766,0C22.766,-6.286 17.669,-11.383 11.383,-11.383C5.096,-11.383 0,-6.286 0,0" style="fill:white;fill-rule:nonzero;"/>
                    </g>
                    <g transform="matrix(4.16667,0,0,4.16667,984.135,171.799)">
                        <path d="M0,-19.662C-5.421,-19.662 -9.831,-15.252 -9.831,-9.831C-9.831,-4.411 -5.421,-0.001 0,-0.001C5.421,-0.001 9.831,-4.411 9.831,-9.831C9.831,-15.252 5.421,-19.662 0,-19.662M0,3.104C-7.132,3.104 -12.935,-2.699 -12.935,-9.831C-12.935,-16.964 -7.132,-22.766 0,-22.766C7.132,-22.766 12.935,-16.964 12.935,-9.831C12.935,-2.699 7.132,3.104 0,3.104" style="fill:rgb(73,51,41);fill-rule:nonzero;"/>
                    </g>
                    <g transform="matrix(4.16667,0,0,4.16667,1023.4,45.6803)">
                        <path d="M0,0C0,2.429 1.969,4.398 4.398,4.398C6.827,4.398 8.796,2.429 8.796,0C8.796,-2.429 6.827,-4.398 4.398,-4.398C1.969,-4.398 0,-2.429 0,0" style="fill:white;fill-rule:nonzero;"/>
                    </g>
                    <g transform="matrix(4.16667,0,0,4.16667,1041.72,57.5398)">
                        <path d="M0,-5.692C-1.569,-5.692 -2.846,-4.416 -2.846,-2.846C-2.846,-1.277 -1.569,-0.001 0,-0.001C1.569,-0.001 2.846,-1.277 2.846,-2.846C2.846,-4.416 1.569,-5.692 0,-5.692M0,3.104C-3.281,3.104 -5.95,0.434 -5.95,-2.846C-5.95,-6.127 -3.281,-8.796 0,-8.796C3.281,-8.796 5.95,-6.127 5.95,-2.846C5.95,0.434 3.281,3.104 0,3.104" style="fill:rgb(73,51,41);fill-rule:nonzero;"/>
                    </g>
                    <g transform="matrix(-4.12843,0.563206,0.563206,4.12843,1084.68,-112.002)">
                        <path d="M-23.026,11.222L-0.062,11.222L-1.182,-4.639L-22.56,-0.678L-23.026,11.222Z" style="fill:rgb(33,116,191);fill-rule:nonzero;"/>
                    </g>
                    <g transform="matrix(4.16667,0,0,4.16667,1093.87,-72.5572)">
                        <path d="M0,-12.589L0.813,-0.118L20.317,-2.78L18.743,-11.696L0,-12.589ZM-0.627,3.197C-0.983,3.197 -1.33,3.074 -1.609,2.847C-1.943,2.574 -2.148,2.175 -2.176,1.746L-3.211,-14.121C-3.239,-14.562 -3.079,-14.995 -2.769,-15.31C-2.459,-15.625 -2.023,-15.786 -1.588,-15.773L20.13,-14.738C20.855,-14.703 21.459,-14.172 21.585,-13.457L23.654,-1.73C23.728,-1.314 23.629,-0.886 23.38,-0.545C23.131,-0.204 22.754,0.021 22.336,0.078L-0.417,3.183C-0.487,3.192 -0.557,3.197 -0.627,3.197" style="fill:rgb(73,51,41);fill-rule:nonzero;"/>
                    </g>
                    <g transform="matrix(4.0105,-1.13004,-1.13004,-4.0105,1062.12,-76.4085)">
                        <path d="M0.949,0.737L7.121,0.737L6.035,-4.37L1.121,-7.419L0.949,0.737Z" style="fill:white;fill-rule:nonzero;"/>
                    </g>
                    <g transform="matrix(4.16667,0,0,4.16667,1073.2,-59.6268)">
                        <path d="M0,-3.93L1.122,-0.247L2.742,-2.018L2.57,-4.655L0,-3.93ZM0.431,4.361C0.317,4.361 0.202,4.348 0.088,4.323C-0.455,4.2 -0.891,3.795 -1.054,3.261L-3.432,-4.542C-3.553,-4.941 -3.509,-5.372 -3.309,-5.738C-3.109,-6.105 -2.769,-6.375 -2.368,-6.488L3.573,-8.163C4.022,-8.291 4.507,-8.207 4.89,-7.936C5.272,-7.665 5.512,-7.237 5.542,-6.77L5.882,-1.56C5.91,-1.138 5.765,-0.723 5.479,-0.411L1.576,3.856C1.279,4.182 0.861,4.361 0.431,4.361" style="fill:rgb(73,51,41);fill-rule:nonzero;"/>
                    </g>
                    <g transform="matrix(4.16667,0,0,4.16667,965.809,-306.139)">
                        <path d="M0,-4.556C-7.244,-8.436 -33.113,-10.765 -50.964,-10.765C-68.814,-10.765 -94.684,-8.436 -101.928,-4.556C-109.171,-0.676 -113.803,6.209 -113.803,6.209L-113.8,6.209C-105.504,4.927 -79.55,1.308 -50.964,1.308C-22.378,1.308 3.577,4.927 11.872,6.209L11.876,6.209C11.876,6.209 7.244,-0.676 0,-4.556" style="fill:rgb(198,198,198);fill-rule:nonzero;"/>
                    </g>
                    <g transform="matrix(4.16667,0,0,4.16667,753.459,-286.4)">
                        <path d="M0,-13.95C-18.439,-13.95 -43.603,-11.476 -50.231,-7.925C-54.083,-5.862 -57.19,-2.863 -59.167,-0.639C-48.556,-2.142 -25.168,-4.982 0,-4.982C25.168,-4.982 48.557,-2.142 59.168,-0.639C57.19,-2.863 54.083,-5.862 50.231,-7.925C43.603,-11.476 18.439,-13.95 0,-13.95M62.84,3.024L62.836,3.024C62.757,3.024 62.677,3.018 62.599,3.006C55.185,1.86 28.761,-1.878 0,-1.878C-28.761,-1.878 -55.185,1.86 -62.599,3.006C-63.244,3.104 -63.9,2.778 -64.207,2.201C-64.477,1.695 -64.447,1.081 -64.127,0.605C-63.929,0.311 -59.194,-6.645 -51.697,-10.662C-43.556,-15.023 -16.036,-17.054 0,-17.054C16.036,-17.054 43.556,-15.023 51.697,-10.662C59.194,-6.645 63.93,0.311 64.128,0.605C64.448,1.081 64.479,1.695 64.21,2.201C63.94,2.708 63.413,3.024 62.84,3.024" style="fill:rgb(73,51,41);fill-rule:nonzero;"/>
                    </g>
                    <g transform="matrix(4.16667,0,0,4.16667,1010.6,209.045)">
                        <path d="M0,8.393C-0.402,8.393 -0.804,8.237 -1.108,7.928C-1.152,7.883 -5.588,3.448 -11.586,3.218C-14.442,3.107 -21.24,3.595 -29.109,4.16C-39.332,4.893 -52.055,5.806 -61.714,5.806C-62.571,5.806 -63.266,5.111 -63.266,4.254C-63.266,3.396 -62.571,2.702 -61.714,2.702C-52.166,2.702 -39.505,1.793 -29.332,1.064C-21.042,0.469 -14.493,0 -11.467,0.116C-4.205,0.395 0.897,5.538 1.111,5.757C1.709,6.37 1.698,7.352 1.084,7.951C0.783,8.246 0.391,8.393 0,8.393" style="fill:rgb(73,51,41);fill-rule:nonzero;"/>
                    </g>
                    <g transform="matrix(4.16667,0,0,4.16667,813.823,27.3557)">
                        <path d="M0,0C0,8.001 -6.486,14.487 -14.487,14.487C-22.488,14.487 -28.974,8.001 -28.974,0C-28.974,-8.001 -22.488,-14.487 -14.487,-14.487C-6.486,-14.487 0,-8.001 0,0" style="fill:white;fill-rule:nonzero;"/>
                    </g>
                    <g transform="matrix(4.16667,0,0,4.16667,753.459,81.2515)">
                        <path d="M0,-25.87C-7.132,-25.87 -12.935,-20.067 -12.935,-12.935C-12.935,-5.803 -7.132,0 0,0C7.132,0 12.935,-5.803 12.935,-12.935C12.935,-20.067 7.132,-25.87 0,-25.87M0,3.104C-8.844,3.104 -16.039,-4.091 -16.039,-12.935C-16.039,-21.779 -8.844,-28.974 0,-28.974C8.844,-28.974 16.039,-21.779 16.039,-12.935C16.039,-4.091 8.844,3.104 0,3.104" style="fill:rgb(73,51,41);fill-rule:nonzero;"/>
                    </g>
                    <g transform="matrix(4.16667,0,0,4.16667,753.465,-34.1452)">
                        <path d="M0,14.933C-0.546,14.933 -1.076,14.644 -1.36,14.132L-7.784,2.527C-8.199,1.776 -7.927,0.832 -7.177,0.417C-6.427,0 -5.483,0.272 -5.067,1.023L1.357,12.628C1.771,13.379 1.5,14.323 0.75,14.738C0.512,14.87 0.254,14.933 0,14.933" style="fill:rgb(73,51,41);fill-rule:nonzero;"/>
                    </g>
                    <g transform="matrix(4.16667,0,0,4.16667,737.061,-8.31015)">
                        <path d="M0,20.46C-0.58,20.46 -1.112,20.137 -1.379,19.621L-10.243,2.486C-10.637,1.725 -10.339,0.788 -9.578,0.394C-8.815,0 -7.88,0.299 -7.486,1.059L-0.033,15.466L2.544,10.244C2.923,9.475 3.855,9.16 4.623,9.539C5.392,9.918 5.708,10.849 5.328,11.618L1.392,19.594C1.133,20.12 0.6,20.454 0.015,20.46L0,20.46Z" style="fill:rgb(73,51,41);fill-rule:nonzero;"/>
                    </g>
                    <g transform="matrix(4.16667,0,0,4.16667,753.455,-34.1452)">
                        <path d="M0,14.933C-0.254,14.933 -0.512,14.87 -0.75,14.738C-1.5,14.323 -1.771,13.379 -1.357,12.628L5.067,1.023C5.482,0.272 6.426,0 7.177,0.417C7.927,0.832 8.199,1.776 7.784,2.527L1.36,14.132C1.076,14.644 0.546,14.933 0,14.933" style="fill:rgb(73,51,41);fill-rule:nonzero;"/>
                    </g>
                    <g transform="matrix(4.16667,0,0,4.16667,769.859,-8.31015)">
                        <path d="M0,20.46L-0.015,20.46C-0.6,20.454 -1.133,20.12 -1.392,19.594L-5.328,11.618C-5.708,10.849 -5.392,9.918 -4.623,9.539C-3.856,9.16 -2.924,9.474 -2.544,10.244L0.033,15.466L7.486,1.059C7.88,0.299 8.815,0 9.578,0.394C10.339,0.788 10.637,1.725 10.243,2.486L1.379,19.621C1.112,20.137 0.58,20.46 0,20.46" style="fill:rgb(73,51,41);fill-rule:nonzero;"/>
                    </g>
                    <g transform="matrix(4.16667,0,0,4.16667,935.699,372.684)">
                        <path d="M0,-15.355C0.126,0.269 1.004,2.329 3.734,3.397C6.709,4.561 15.763,4.303 20.937,3.268C26.111,2.233 27.774,-3.717 27.774,-10.184L27.774,-19.916C21.268,-18.486 11.505,-16.774 0,-15.355" style="fill:rgb(84,82,78);fill-rule:nonzero;"/>
                    </g>
                    <g transform="matrix(4.16667,0,0,4.16667,942.222,365.065)">
                        <path d="M0,-12.158C0.171,2.069 1.114,3.147 2.734,3.78C3.789,4.194 6.167,4.44 9.094,4.44C12.577,4.44 16.398,4.108 19.067,3.575C23.687,2.651 24.656,-3.423 24.656,-8.356L24.656,-16.168C17.719,-14.723 8.92,-13.29 0,-12.158M9.095,7.545L9.094,7.545C6.694,7.545 3.446,7.393 1.603,6.671C-2.243,5.167 -2.993,1.96 -3.118,-13.514C-3.125,-14.302 -2.539,-14.97 -1.756,-15.067C8.368,-16.315 18.439,-17.969 25.875,-19.604C26.337,-19.703 26.815,-19.592 27.181,-19.298C27.547,-19.003 27.761,-18.558 27.761,-18.088L27.761,-8.356C27.761,0.258 24.89,5.576 19.676,6.618C16.821,7.19 12.766,7.545 9.095,7.545" style="fill:rgb(73,51,41);fill-rule:nonzero;"/>
                    </g>
                    <g transform="matrix(4.16667,0,0,4.16667,455.496,391.691)">
                        <path d="M0,-24.478L0,-14.746C0,-8.278 1.663,-2.328 6.837,-1.294C12.011,-0.259 21.065,0 24.04,-1.164C26.77,-2.233 27.648,-4.292 27.774,-19.917C16.269,-21.335 6.506,-23.048 0,-24.478" style="fill:rgb(84,82,78);fill-rule:nonzero;"/>
                    </g>
                    <g transform="matrix(4.16667,0,0,4.16667,461.963,381.768)">
                        <path d="M0,-20.177L0,-12.364C0,-7.432 0.97,-1.358 5.588,-0.434C8.258,0.1 12.079,0.432 15.561,0.432L15.562,0.432C18.489,0.432 20.867,0.185 21.922,-0.228C23.542,-0.862 24.485,-1.94 24.656,-16.167C15.736,-17.299 6.937,-18.731 0,-20.177M15.562,3.536L15.561,3.536C11.889,3.535 7.835,3.181 4.98,2.61C-0.233,1.567 -3.104,-3.751 -3.104,-12.364L-3.104,-22.096C-3.104,-22.567 -2.891,-23.012 -2.525,-23.306C-2.158,-23.601 -1.678,-23.713 -1.219,-23.612C6.216,-21.978 16.287,-20.324 26.412,-19.075C27.194,-18.979 27.78,-18.311 27.774,-17.522C27.649,-2.049 26.899,1.158 23.053,2.663C21.209,3.384 17.962,3.536 15.562,3.536" style="fill:rgb(73,51,41);fill-rule:nonzero;"/>
                    </g>
                    <g transform="matrix(4.16667,0,0,4.16667,841.849,255.873)">
                        <path d="M0,-19.661L-21.213,-19.661L-42.427,-19.661L-42.641,-0.403L-21.213,0L0.214,-0.403L0,-19.661Z" style="fill:rgb(84,82,78);fill-rule:nonzero;"/>
                    </g>
                    <g transform="matrix(4.16667,0,0,4.16667,670.718,181.977)">
                        <path d="M0,15.809L19.858,16.182L39.716,15.809L39.536,-0.374L0.179,-0.374L0,15.809ZM19.858,19.287C19.848,19.287 19.838,19.287 19.828,19.287L-1.599,18.884C-2.451,18.868 -3.131,18.167 -3.122,17.315L-2.908,-1.943C-2.898,-2.794 -2.206,-3.478 -1.356,-3.478L41.071,-3.478C41.921,-3.478 42.614,-2.794 42.623,-1.943L42.838,17.315C42.847,18.167 42.167,18.868 41.315,18.884L19.887,19.287C19.877,19.287 19.867,19.287 19.858,19.287" style="fill:rgb(73,51,41);fill-rule:nonzero;"/>
                    </g>
                </g>
                <g transform="matrix(1,0,0,1,-44.2096,-97.29)">
                    <g transform="matrix(1,0,0,1,549.44,566.53)">
                        <text x="0px" y="0px" style="font-family:'Lato-Black', 'Lato', sans-serif;font-weight:900;font-size:48px;fill:rgb(73,51,41);">Que</text>
                    </g>
                    <g transform="matrix(1,0,0,1,640.352,566.53)">
                        <text x="0px" y="0px" style="font-family:'Lato-Black', 'Lato', sans-serif;font-weight:900;font-size:48px;fill:rgb(73,51,41);">x</text>
                    </g>
                </g>
                <g transform="matrix(1,0,0,1,328.879,-96.714)">
                    <g transform="matrix(1,0,0,1,549.44,566.53)">
                        <text x="0px" y="0px" style="font-family:'Lato-Black', 'Lato', sans-serif;font-weight:900;font-size:48px;fill:rgb(73,51,41);">P</text>
                    </g>
                    <g transform="matrix(1,0,0,1,578.864,566.53)">
                        <text x="0px" y="0px" style="font-family:'Lato-Black', 'Lato', sans-serif;font-weight:900;font-size:48px;fill:rgb(73,51,41);">ark</text>
                    </g>
                </g>
            </g>
        </g>
    </g>
</svg>
